<?xml version="1.0" encoding="UTF-8"?>
<svg version="1.1" viewBox="0 0 2048 714" width="800" height="279" xmlns="http://www.w3.org/2000/svg">
<path transform="translate(1667)" d="m0 0h48l37 5 29 6 26 8 24 9 29 14 21 12 20 14 13 10 13 11 10 9 20 20 9 11 12 15 13 19 8 13 12 22 9 19 10 27 8 27 6 31 4 30v48l-4 32-5 26-7 26-10 28-13 28-11 20-9 14-12 17-11 14-10 11-7 8-15 15-8 7-13 11-18 13-15 10-21 12-22 11-28 11-26 8-27 6-34 5-10 1h-42l-38-5-29-6-24-7-22-8-20-9-20-10-18-11-19-13-14-11-14-12-7-7-8-7-11-12-10-11-13-17-12-17-13-22-10-19-11-26-9-27-7-28-5-32-2-26v-30l2-25 6-36 7-27 8-23 8-19 12-25 12-20 11-16 9-12 9-11 13-15 19-19 11-9 8-7 16-12 23-15 22-12 21-10 24-9 26-8 29-6 27-4z" fill="#EC2127"/>
<path transform="translate(342,201)" d="m0 0 32 1h53l34-1 3 3 13 28 19 40 13 27 13 28 15 31 13 28 16 33 2-2 11-23 19-39 16-33 19-39 12-25 22-45 6-11h118l1 1v17l-1 1-23 2-13 4-6 4-2 4v243l3 5 6 4 10 3 7 1 17 1 2 1v18h-167v-18l1-1 20-1 14-3 9-5 3-7v-220l-20 41-11 23-14 29-11 23-14 29-11 23-14 29-24 50-6 12h-15l-8-16-13-27-13-28-16-34-13-28-16-34-13-28-14-30-8-18-8-16v222l4 6 8 4 16 3 17 1 2 1v18h-116v-18l1-1 16-1 14-3 8-5 3-6v-242l-4-6-8-4-12-3-14-1-4-1v-18z" fill="#0278BE"/>
<path transform="translate(0,202)" d="m0 0h213l21 2 17 4 16 7 10 8 7 8 6 12 3 12 1 13-2 18-6 16-8 11-7 7-14 9-14 6-18 5-19 3-2 1 28 3 22 5 15 6 14 9 10 9 7 10 6 13 3 13 1 17-2 17-4 13-7 13-9 10-9 8-14 8-16 6-22 5-17 2h-210v-18l23-3 13-4 7-6 1-7v-237l-4-7-8-4-13-3-19-1zm119 19-1 1v114h33l21-1 16-4 10-5 10-9 5-8 4-13 1-5v-26l-3-14-6-12-7-7-8-5-13-4-17-2zm-1 134v137h37l19-1 16-3 12-5 8-5 6-5 7-10 5-15 2-13 1-14v-14l-3-16-7-14-7-8-12-7-12-4-13-2-16-1z" fill="#0178BE"/>
<path transform="translate(1773,161)" d="m0 0 7 1 8 7 13 16 22 28 14 17 22 28 1 3v143l-4-2-8-11-56-72-8-10-4-2h-9l-6 4-11 14-10 13-13 17-10 13-13 17-8 10-6 3-7-1-5-3-13-17-20-26-13-17-10-13-8-10-4-3-9-1-6 3-11 13-12 16-13 16-10 13-22 28-6 8h-2v-144l10-13 12-15 11-14 13-16 10-13 20-25 5-2h7l5 3 7 7 9 12 13 17 10 13 26 34 9 4 9-2 9-10 12-16 16-21 9-12 16-21 5-6z" fill="#FEFEFE"/>
<path transform="translate(968,197)" d="m0 0h42l27 3 23 5 17 6 19 9 12 8 10 8 10 9 11 14 9 15 8 18 5 17 4 25 1 17v13l-2 25-4 20-7 21-11 21-9 12-9 10-11 10-15 10-16 8-16 6-18 5-25 4-30 2-28-1-23-3-23-5-20-7-21-11-11-8-14-12-9-11-8-11-8-15-7-19-5-22-2-16v-41l4-26 6-20 8-18 10-16 13-15 14-12 16-10 19-9 19-6 26-5zm11 19-17 3-12 4-13 7-12 11-8 10-9 17-6 19-4 21-2 25v49l2 23 4 22 5 16 6 14 8 12 9 10 13 9 13 6 18 4 21 1 18-2 16-5 12-6 10-8 7-7 9-14 7-16 6-23 3-23 1-21v-35l-2-29-4-22-6-20-9-17-7-9-9-9-11-7-11-5-16-4-8-1z" fill="#0278BE"/>
<path transform="translate(1547,405)" d="m0 0h311l2 3v103l-1 1h-336l-1-3v-103z" fill="#FEFEFE"/>
</svg>
