<?xml version="1.0" encoding="UTF-8"?>
<svg version="1.1" viewBox="0 0 2048 591" width="820" height="237" xmlns="http://www.w3.org/2000/svg">
<path transform="translate(111,100)" d="m0 0 26 1 21 3 17 5 12 5 12 8 8 7 9 13 5 12 3 14v23l-3 14-5 12-9 13-9 8-13 8-16 6-17 4-15 2-27 1-26-2-20-4-16-6-13-7-12-11-6-8-6-12-4-16v-26l3-14 5-12 8-11 8-8 11-7 13-6 13-4 16-3 8-1zm-4 53-22 2-15 4-9 5-6 7-1 3v11l3 6 8 7 10 4 15 3 12 1h27l17-2 15-4 10-6 4-5 2-5v-9l-4-8-8-6-14-5-13-2-17-1z" fill="#0A64A1"/>
<path transform="translate(138,280)" d="m0 0h22l17 4 15 8 10 8 7 8 6 10 5 11 3 12 1 7v21l-4 20-6 16-9 15-7 9-5-1-22-14-14-9 4-6 7-11 4-9 3-14-1-12-6-12-9-6-2-1h-14l-8 4-6 7-4 11v21l4 13 1 7-9 24h-15l-90-7-6-1v-117l2-1 42 1v73h27l-1-5v-21l3-15 5-13 7-11 7-8 10-7 10-5z" fill="#0964A1"/>
<path transform="translate(177,444)" d="m0 0h43l1 1v138l-1 1h-43l-1-7v-38l-102 1 8 6 11 11 2 4-13 13-8 7-8 8-3 1-10-10-7-8-9-9-7-8-10-10-7-8-3-4v-43l1-1h165v-44z" fill="#0B65A1"/>
<path transform="translate(1440,166)" d="m0 0h27l12 3 14 7 12 10 9 13 6 13 4 17 1 9v11l-1 9-1 1h-122l3 15 5 13 7 9 9 8 14 7 8 2 16 1 15-3 12-5 11-7 8-6 8 13 5 8-1 5-12 9-19 9-15 4-7 1h-20l-16-3-14-5-13-8-11-9-11-14-8-17-4-16-1-7v-17l3-19 6-16 8-14 11-12 13-9 10-5 13-4zm5 26-12 3-10 5-8 7-7 10-5 12v4h91l-1-10-5-12-6-8-8-6-10-4-5-1z" fill="#5E2651"/>
<path transform="translate(1013,166)" d="m0 0h26l13 3 14 7 11 9 9 12 7 15 4 17 1 9v10l-1 10-1 1h-122l3 16 5 12 7 9 9 8 14 7 8 2 16 1 15-3 12-5 11-7 8-6 13 21-1 5-11 8-15 8-20 6-7 1h-20l-16-3-14-5-12-7-11-9-10-12-6-10-6-16-3-17v-18l3-18 6-16 8-14 11-12 13-9 10-5 13-4zm5 26-12 3-10 5-9 8-7 11-5 13v1h92l-1-9-4-11-7-10-10-7-13-4z" fill="#5E2651"/>
<path transform="translate(715,166)" d="m0 0h24l14 3 13 5 14 8 13 11 10 13 8 16 4 15 1 6v21l-4 18-7 16-10 14-10 10-15 10-15 6-11 3-8 1h-19l-16-3-15-6-10-6-10-8-8-8-7-10-8-16-4-14-1-6v-23l4-17 6-14 8-12 9-10 13-10 16-8 15-4zm1 28-13 4-12 7-10 10-7 11-5 15-1 7v11l3 15 8 16 11 12 11 7 10 4 11 2h10l14-3 14-7 12-11 7-11 5-13 2-13-1-16-5-15-7-11-10-10-12-7-13-4z" fill="#5E2751"/>
<path transform="translate(506,106)" d="m0 0h126v27l-95 1-1 76h82l1 1v26l-2 1h-81v100h-30z" fill="#5E2651"/>
<path transform="translate(1713,166)" d="m0 0h20l18 4 10 4 13 9 3 3-1 4-12 20-4-2-9-7-13-5-4-1h-22l-9 4-5 4-3 8 1 9 5 7 14 8 27 11 14 7 11 8 7 8 5 10 2 8v12l-3 12-6 10-10 10-14 7-16 4h-22l-18-4-16-7-11-8-7-6 1-5 14-18 4 2 9 7 16 8 15 3h10l11-3 6-4 4-5 1-3v-11l-4-6-9-6-15-7-24-10-12-7-10-8-7-10-4-11v-17l3-10 6-10 8-8 12-7 14-4z" fill="#5E2751"/>
<path transform="translate(1171,166)" d="m0 0h20l15 3 13 5 11 7 5 5-1 5-12 19-5-3-5-4-12-6-8-2h-22l-9 4-5 5-3 9 2 9 5 5 9 6 31 13 16 8 10 8 7 8 5 11 1 5v14l-4 13-7 11-11 9-13 6-14 3h-22l-18-4-14-6-12-8-8-7 1-4 8-11 6-8 4 2 12 9 13 6 15 3h10l11-3 6-4 4-5 2-7-1-7-4-6-10-7-26-11-21-10-10-8-8-9-4-8-2-8v-13l4-13 7-11 8-7 16-8z" fill="#5E2751"/>
<path transform="translate(1278,125)" d="m0 0h28l1 1v46l14-1h25l1 1v25l-1 1h-39l1 86 4 13 5 7 9 5 6 2h14l4-1 6 9 8 14v2l-15 4-16 1-14-2-14-5-11-8-8-10-5-10-3-12-1-7v-88h-21v-27h20l1-45z" fill="#5E2651"/>
<path transform="translate(1619,168)" d="m0 0h14l12 3 8 4-2 5-10 17-2 2h-20l-12 5-10 9-7 11-5 12-3 12-1 7-1 83h-30v-168h30v23l-1 2h2l2-4 7-8 8-7 12-6z" fill="#5D2550"/>
<path transform="translate(910,168)" d="m0 0h13l12 3 9 4-6 11-8 13h-20l-11 4-10 8-7 10-6 13-4 17-1 27v59l-1 1h-29v-168h29l1 24 9-11 10-8 11-5z" fill="#5D2650"/>
<path transform="translate(390,196)" d="m0 0h1v29l-23 12-11 6-1 12h35v26h-105v-48l2-9 6-10 8-6 8-3h18l10 4 7 6 4 4 25-14zm-75 35-5 4-2 7v13h26v-14l-3-7-5-3z" fill="#027A86"/>
<path transform="translate(1280,456)" d="m0 0 14 1 11 4 9 6 7 9 4 11 1 5v87l-1 1h-14l-1-21-8 11-9 7-9 4-11 2-13-1-11-4-8-5-7-8-4-9-1-5v-8l3-11 5-8 9-8 11-5 15-4 22-2h16l-3-17-4-8-5-4-11-4h-14l-15 4-11 6h-2l-6-10 1-4 16-8 12-3zm21 62-18 1-16 3-9 4-7 5-4 8-1 10 4 10 7 6 7 3 5 1 13-1 10-5 5-4 7-10 5-13 1-7v-10l-1-1z" fill="#602953"/>
<path transform="translate(847,456)" d="m0 0 14 1 11 4 9 6 7 9 4 10 1 6v87l-1 1h-14l-1-20-9 11-8 6-9 4-11 2-13-1-11-4-9-6-6-7-4-9-1-11 2-11 6-10 9-8 11-5 15-4 22-2h16l-3-17-4-8-5-4-11-4h-14l-12 3-14 7h-2l-6-10 1-4 16-8 12-3zm20 62-17 1-16 3-10 4-5 4-4 6-2 7 1 10 5 8 5 4 7 3 5 1 13-1 10-5 6-5 7-11 4-12 1-6v-11z" fill="#5F2953"/>
<path transform="translate(388,297)" d="m0 0h3v26l-19 6h-3v33l16 4 6 2v26l-9-2-89-30-7-3v-27l16-6 45-15zm-43 39-26 7-8 2 3 2 26 7 9 2v-20z" fill="#027A86"/>
<path transform="translate(369,407)" d="m0 0h22v68h-105v-66h22v40h18l1-32h22v32h20z" fill="#027B86"/>
<path transform="translate(1986,104)" d="m0 0h17l10 4 11 7 12 12 4 5-1 2-8-2-9-1h-9l-14 3-16 8-13 11-9 11-9 14-9 17-8 19-9 25-9 29-9 36-8 39-1 3h-3v-10l4-34 6-37 8-39 9-34 10-29 9-19 9-14 8-10 9-8 14-7z" fill="#51B7B0"/>
<path transform="translate(354,110)" d="m0 0h13l10 4 8 7 5 8 3 11v14l-3 13-6 12-5 6-5-2-14-10v-4l6-10 2-6v-11l-3-5-4-1-5 3-8 17-6 12-9 10-8 4-4 1h-10l-11-4-7-6-6-10-3-12v-11l2-10 5-12 4-6 6 2 15 8v3l-6 12-1 4v9l3 5 1 1h6l4-5 11-25 7-9 7-5z" fill="#037B86"/>
<path transform="translate(988,456)" d="m0 0 15 1 10 4 6 4 5 6 4 8 2 9 1 10v81l-1 1h-15l-1-69-1-18-3-10-6-7-7-3h-17l-12 4-10 7-6 7-7 14-1 5-1 21v48l-16 1-1-1v-119l1-1h15l1 25 8-11 9-8 12-6 7-2z" fill="#5F2852"/>
<path transform="translate(730,456)" d="m0 0 15 1 9 3 8 6 4 5 4 8 2 9 1 10v81l-1 1h-15l-1-73-1-14-3-10-6-7-7-3h-17l-10 3-11 7-7 8-7 14-1 5-1 22v47l-16 1-1-1v-119l1-1h15l1 25 8-11 9-8 12-6 7-2z" fill="#5F2752"/>
<path transform="translate(506,411)" d="m0 0h88l1 1v13l-1 1h-71v64l40-1h11l10 1v14h-61v75l-1 1h-16z" fill="#602953"/>
<path transform="translate(286,491)" d="m0 0 6 2 23 13 29 16 3 2 44 1v26l-44 1-23 13-29 16-7 4h-2v-29l27-13 12-5-24-11-15-7z" fill="#047C87"/>
<path transform="translate(1117,456)" d="m0 0 15 1 14 4 12 7 5 4-1 5-6 9-9-6-12-6-9-2h-13l-11 3-8 4-10 9-6 10-4 14v14l3 12 5 10 8 9 12 7 12 3h13l12-3 13-7 6-5 3 1 5 9-1 4-10 7-13 6-12 3h-22l-12-3-12-6-9-7-8-9-8-16-3-15v-13l3-14 5-12 8-11 10-9 14-7 11-3z" fill="#5F2853"/>
<path transform="translate(1358,411)" d="m0 0h16l1 1 1 144 3 6 6 3 7 1v14h-15l-9-4-7-8-3-12z" fill="#632D57"/>
<path transform="translate(1840,59)" d="m0 0h16l12 6 8 10 6 14 5 21 3 28v56l-1 17-1 4h-3l-1-3-2-31-4-28-6-25-7-18-7-13-9-10-8-5-11-3h-14l-9 1 4-5 14-10 11-5z" fill="#51B7B0"/>
<path transform="translate(1962)" d="m0 0 9 1 12 6 12 12 6 10-6-2-4-2-7-1-9 2-8 6-7 8-8 14-8 17-10 28-9 31-1 2-3-1v-10l4-38 4-24 6-23 6-15 7-12 7-6z" fill="#52B7B0"/>
<path transform="translate(618,459)" d="m0 0h16l1 1v32l-1 87-15 1-1-1z" fill="#5F2853"/>
<path transform="translate(1189,459)" d="m0 0h16v120l-1 1h-14l-1-1z" fill="#5D2650"/>
<path transform="translate(618,411)" d="m0 0h16l1 1v19l-14 1-4-1v-9z" fill="#69365D"/>
<path transform="translate(1189,411)" d="m0 0h16l1 3-1 17-5 1h-11l-1-1v-19z" fill="#6C3960"/>
</svg>
