<?xml version="1.0" encoding="UTF-8"?>
<svg version="1.1" viewBox="0 0 2048 334" width="820" height="134" xmlns="http://www.w3.org/2000/svg">
<path transform="translate(31)" d="m0 0h395l12 3 9 6 7 8 4 10 1 7v125l-5-1-24-8-32-8-26-5-30-4-23-2-18-1h-52l-33 2-37 4-39 6-35 7-42 10-38 11-25 7v-150l6-12 4-5 9-6 7-3zm183 38-8 3-8 6-6 10-3 12v12l3 12 4 8 8 9 10 5h12l8-4 8-9 4-10 2-9v-10l-3-12-6-11-7-7-8-4zm157 18-8 3-7 6-6 10-3 11v11l4 13 8 9 5 3 4 1h7l10-4 8-8 5-11 1-4v-15l-3-10-6-9-8-5-3-1zm-296 27-7 4-6 9-2 8v12l3 10 6 9 5 4 3 1h10l8-6 5-10 1-4v-13l-4-11-4-6-7-6-3-1z" fill="#4F0B72"/>
<path transform="translate(263,164)" d="m0 0h31l32 1 1 1 6 116v14l11-1 10-66 3-12h13l1 2 3 49 1 27 14 1 1-18 9-96 1-11 1-1 15 1 42 6 1 2v115l-1 12-4 10-9 10-10 5-4 1h-404l-12-5-9-9-6-12v-114l27-5 31-5 2 7 11 84 2 16v7h9l2-51 2-21 3-2h5l2 5 5 35 3 26v8h12v-59l1-43 1-20 23-3 36-3h5l3 25 9 80 2 23h14l1-13 6-60 1-7 13-1 2 7 8 70v4h11l2-32 7-86 1-11z" fill="#4F0B72"/>
<path transform="translate(985)" d="m0 0h46l6 4 8 14 15 30 10 19 12 24 10 19 10 20 5 9 2-3 16-32 11-23 22-44 11-23 5-9 5-5h49l6 7v184l-5 6-6 1h-24l-7-3-2-3-1-9v-110l1-2h-2l-2 6-56 112-6 7-4 1h-29l-5-3-12-22-29-58-10-19-12-24-1 119-4 6-7 2h-24l-7-3-3-5v-182l6-7z" fill="#4F0B72"/>
<path transform="translate(1521)" d="m0 0h32l5 3 8 8 7 8 11 12 7 8 11 12 7 8 11 12 7 8 12 13 7 8 11 12 14 16 1-122 6-6h33v2l4 2 1 2v185l-5 5-3 1h-33l-8-7-12-13-7-8-11-12-9-10-7-8-12-13-7-8-12-13-7-8-18-20-6-7-1 116-2 7-4 4-5 1h-25l-5-2-4-5v-184l4-5z" fill="#4F0B72"/>
<path transform="translate(1342)" d="m0 0h67l5 6 9 20 29 67 17 39 22 51 1 5-3 6-5 3h-31l-5-3-8-16-4-9h-121l-10 22-4 5-4 1h-31l-5-3-2-3v-8l19-43 14-32 36-82 9-21zm25 42-13 31-20 47-2 6h84l-1-5-17-41-15-36-1-2z" fill="#4F0A72"/>
<path transform="translate(1899)" d="m0 0h67l6 7 23 54 40 94 12 28 1 2v8l-7 4h-31l-5-3-7-14-5-11h-121l-8 18-5 8-4 2h-32l-5-3-2-3v-7l18-41 17-39 15-34 18-41 11-25zm26 42-7 15-16 38-12 28v3h83l-1-6-20-48-12-29-1-1z" fill="#4F0A72"/>
<path transform="translate(528)" d="m0 0h33l6 7v67h110v-68l5-6h33l5 5 1 2v177l-2 9-3 3-4 1h-29l-6-5-1-2v-74h-109v74l-5 6-3 1h-29l-5-3-2-2-1-6v-178l3-5z" fill="#4F0B72"/>
<path transform="translate(755)" d="m0 0h33l6 7 1 104 3 15 7 14 6 7 10 6 12 4 6 1h21l13-3 13-7 7-7 7-14 3-13 1-24v-78l2-8 4-2v-2h34l6 7v101l-2 17-4 16-9 19-11 14-12 10-14 8-14 5-14 3-7 1h-28l-20-4-16-6-14-9-10-9-7-8-8-13-6-15-4-20-1-16v-93l4-6z" fill="#4F0B72"/>
<path transform="translate(1752)" d="m0 0h34l5 6v185l-7 6h-30l-7-6v-185z" fill="#4F0A72"/>
<path transform="translate(1057,255)" d="m0 0h53l11 4 8 7 4 8 2 12-2 9-6 10-7 5 6 11 5 9v2h-15l-4-5-7-12h-33v16l-1 1h-13l-1-6zm15 13v32l1 1h28l12-2 5-5 2-4v-12l-4-6-8-4z" fill="#63676A"/>
<path transform="translate(1607,255)" d="m0 0h69l-1 13h-54v18h48l1 1v11l-1 1h-48v19h56l1 1v12l-25 1h-46l-1-8v-68z" fill="#64686B"/>
<path transform="translate(1335,255)" d="m0 0h15l12 13 7 8 9 10 11 12 7 8 4 4v-55h14v77h-14l-10-10-9-11-13-14-7-8-9-10-1-3h-2v56h-13l-1-1z" fill="#5F6366"/>
<path transform="translate(686,253)" d="m0 0h26l11 3 12 6-2 5-4 6-18-6-8-1h-12l-9 2-4 4v6l6 3 31 4 12 4 7 6 3 6 1 8-3 10-7 8-11 5-8 2h-24l-16-5-10-5 1-5 5-8 16 7 8 2h20l9-3 3-3v-9l-5-3-9-2-29-4-10-5-4-5-2-4v-12l5-8 8-6z" fill="#606467"/>
<path transform="translate(816,253)" d="m0 0h26l13 4 9 5v3l-5 8-9-3-10-3-7-1h-12l-9 2-4 2-1 7 3 3 10 2 24 3 10 3 9 6 4 8v12l-4 8-7 6-9 4-8 2h-24l-16-5-10-5 1-5 5-8 16 7 8 2h20l8-3 4-4v-7l-2-3-12-3-29-4-10-5-4-5-2-4v-12l4-7 7-6z" fill="#606466"/>
<path transform="translate(548,255)" d="m0 0h27l12 27 12 28 8 19v3h-14l-4-8-1-3h-53l-5 10-1 1h-14l1-5 19-43 12-28zm9 13-13 29-4 10h41l-1-5-13-32-2-2z" fill="#616568"/>
<path transform="translate(1220,255)" d="m0 0h27l7 15 12 28 13 30 1 3-1 1h-13l-3-4-3-7h-53l-4 10-6 1h-9v-4l13-30 16-36zm10 13-3 5-14 32v2h41l-5-13-10-24-1-2z" fill="#616568"/>
<path transform="translate(922,254)" d="m0 0 14 1 1 47 3 9 8 7 6 2h14l9-4 6-7 2-8 1-46 2-1 12 1v47l-3 11-5 8-9 8-10 4-4 1h-16l-12-4-9-6-6-8-4-12z" fill="#5F6366"/>
<path transform="translate(1509,253)" d="m0 0 16 1 13 5 10 9 3 5-10 6h-2l-6-7-8-4-4-1h-16l-10 4-7 8-3 9v10l4 11 2 4 4 2 9 4 12 1 10-2 9-6h2l2-4 4 1 8 4-2 5-7 7-10 6-9 3h-20l-15-6-10-9-5-8-3-11v-14l3-10 6-9 9-8 9-4z" fill="#616567"/>
<path transform="translate(1718,256)" d="m0 0h8l12 24v3l3-3 10-23 1-1h8l1 1v34h-6l-1-25-12 25-4 1-3-2-11-24-1 25-4 1-1-1z" fill="#4F0E72"/>
<path transform="translate(1830,248)" d="m0 0h7l10 3 7 6 5 10v14l-4 8-7 7-7 3h-15l-8-4-7-8-3-7v-12l5-10 8-7zm2 4-10 3-5 5-3 4-2 6v8l3 8 8 7 4 2h13l8-4 6-8 1-4v-10l-5-10-7-5z" fill="#501271"/>
<path transform="translate(1773,255)" d="m0 0 17 1 6 3 5 6 1 2v11l-3 6-6 5-8 2h-17v-35zm1 6-1 4v20l1 1h14l6-3 3-7-1-9-5-5-4-1z" fill="#4F0E72"/>
<path transform="translate(1824,261)" d="m0 0h18l5 5 1 5-3 7 1 7h-4l-3-5-11-1v6l-2 1-2-1-1-3v-20zm4 4v10l2 1h7l5-3v-6l-3-2z" fill="#501571"/>
</svg>
