<?xml version="1.0" encoding="UTF-8"?>
<svg version="1.1" viewBox="0 0 2048 896" width="820" height="359" xmlns="http://www.w3.org/2000/svg">
<path transform="translate(1011,350)" d="m0 0h38l26 3 20 4 19 6 20 8 19 10 18 12 13 10 3 1 7-11 9-10 9-8 16-8 11-3 6-1 19-1h17l10 1 3 3v514l-4 3h-42l-16-3-16-7-9-7-8-7-9-12-3-5-5 2-14 11-19 12-25 12-27 9-29 6-14 2h-47l-37-6-23-6-22-8-25-12-20-12-17-13-13-11-12-11-9-9-7-8-13-16-14-21-10-18-9-20-9-27-5-22-4-31v-44l3-25 5-24 6-20 7-18 11-23 12-19 11-15 9-11 11-12 17-17 11-9 16-12 19-12 21-11 23-9 20-6 25-5zm3 115-19 3-17 5-12 5-17 9-16 12-12 11-9 9-11 14-11 18-7 16-5 16-3 16-1 11v23l3 22 4 15 6 16 9 17 12 16 12 13 9 9 17 13 16 9 16 7 17 5 20 3h32l19-3 18-5 18-8 15-9 13-10 13-12 7-7 11-14 8-13 8-16 6-18 4-20 1-15v-14l-2-20-5-21-8-20-8-14-10-14-12-13-10-10-17-13-16-9-16-7-17-5-19-3z" fill="#0074A0"/>
<path transform="translate(232,361)" d="m0 0h90l14 3 11 6 9 8 7 11 9 19 14 32 19 43 18 41 20 45 19 43 18 41 11 25 3-4 136-306 3-6 2-1h117l5 3-1 9-19 43-18 41-17 39-90 205-14 32-36 82-17 39-9 20-7 9-9 6-11 4-4 1h-23l-12-3-11-6-7-8-8-16-13-29-18-41-76-172-18-41-57-129-18-41-17-39 1-5z" fill="#0074A0"/>
<path transform="translate(1548,349)" d="m0 0h43l23 3 17 4 3 3 1 2v116l-5 4-6-1-9-6-12-5-15-3h-32l-15 3-13 5-11 8-8 10-5 11-3 11-1 8-1 356-2 4-2 1h-110l-3-3-1-3v-356l2-21 5-24 6-18 10-21 12-18 12-14 12-12 17-13 15-9 19-9 18-6 24-5z" fill="#0074A0"/>
<path transform="translate(1709,361)" d="m0 0h108l6 2 1 3v512l-1 3-3 2h-112l-2-4v-515z" fill="#0074A0"/>
<path transform="translate(53,361)" d="m0 0h107l5 2 1 1v516l-3 3h-112l-2-2-1-28 1-490z" fill="#0074A0"/>
<path transform="translate(93)" d="m0 0h28l17 4 16 6 11 6 12 9 14 14 10 15 7 15 5 19 1 7v23l-3 16-7 19-9 15-11 13-11 10-14 9-16 7-15 4-27 3-2 2 1 5 9 11 8 8 11 9 15 12 7 5 4 8v9l-4 8-7 6-5 2h-13l-16-8-15-9-13-10-13-11-14-14-11-14-10-14-12-22-9-22-6-22-4-24-1-12v-18l3-19 5-15 9-17 10-13 11-11 14-10 17-8 19-5z" fill="#9B0064"/>
<path transform="translate(1734)" d="m0 0h10l23 12 12 8 13 10 14 12 7 7 7 8 11 14 12 19 8 16 7 17 6 19 4 20 2 17v26l-4 20-6 16-8 14-8 10-13 13-15 10-16 7-15 4-11 2h-18l-17-3-15-5-16-8-13-10-13-13-10-15-7-15-4-13-2-11v-27l4-18 5-13 7-13 9-12 13-13 13-9 16-8 12-4 18-3 15-1 3-3-1-5-6-8-15-15-14-11-13-10-5-6-1-3v-10l4-8 7-6z" fill="#9B0064"/>
<path transform="translate(1958,355)" d="m0 0 5 1 10 11 11 14 9 11 5 6v2l5-5 9-11 13-16 9-12 5-1 3 3v80h-12l-2-4v-44l-5 5-13 16-8 10-3 1-11-14-9-11-7-9-1 50h-15v-81z" fill="#0074A0"/>
<path transform="translate(1884,459)" d="m0 0h6l12 14 22 28 2 1 2-4 9-11 22-28h5l3 4v77h-13l-1-1v-48l-5 5-22 28-4-2-13-17-10-13-1 48h-15v-80z" fill="#0074A0"/>
<path transform="translate(2016,455)" d="m0 0h8l16 7 2 1 1 15-2 1-12-6h-13l-10 5-7 8-3 8v12l4 9 4 5 8 5 9 2 9-1 10-5h2v14l-7 3-6 1h-11l-9-2-8-4-10-9-4-5-5-10-1-4v-16l4-11 6-8 8-8 10-5z" fill="#0174A0"/>
<path transform="translate(1884,356)" d="m0 0h57l1 5-1 8h-20v67l-15 1-1-1 1-65h-22z" fill="#0174A0"/>
</svg>
