<?xml version="1.0" encoding="UTF-8"?>
<svg version="1.1" viewBox="0 0 2048 2048" width="2500" height="2500" xmlns="http://www.w3.org/2000/svg">
<path transform="translate(0)" d="m0 0h2048v2048h-2048z" fill="#FEFFFF"/>
<path transform="translate(91,852)" d="m0 0h337v337h-337z" fill="#176944"/>
<path transform="translate(522,939)" d="m0 0h96l12 24 13 28 16 33 11 23 16 34 13 27 6 12 14-29 13-28 13-27 13-28 14-29 13-28 6-12h97v12l-20 1-10 3-7 6-4 10-1 6v174l3 13 5 7 7 4 11 2 16 1v11h-137v-11l23-2 8-3 5-4 4-8 2-10v-173l-15 31-12 26-17 36-13 28-18 38-13 28-11 24h-12l-10-19-19-40-16-33-11-23-14-29-16-34-14-29v172l3 10 4 6 8 5 11 2 14 1v11h-100v-11l21-2 10-5 5-6 3-11 1-13v-153l-1-14-3-10-5-7-5-3-8-2-18-1z" fill="#176944"/>
<path transform="translate(962,1012)" d="m0 0h25l18 3 14 5 9 6 7 7 4 9 2 10 1 108 3 7 5 1 8-3 7-6 2-3h2l4 6-1 5-9 11-10 9-11 6-9 3h-16l-9-4-6-5-4-8-1-3v-10l-16 12-11 7-15 8-9 3h-18l-12-4-10-8-6-9-4-12-1-7v-12l3-12 6-11 9-9 14-9 17-8 25-9 27-9v-28l-2-11-4-6-8-4-5-1h-14l-10 3-6 5-2 4-1 19-4 8-6 5-3 1h-12l-6-3-6-7-1-3v-12l4-10 9-10 13-8 16-5z" fill="#176944"/>
<path transform="translate(1128,1012)" d="m0 0h18v25l16-12 16-8 13-4 6-1h17l12 3 12 6 8 7 6 10 4 13 1 7 1 95 2 15 4 6 8 3 10 1v11h-92v-11l13-2 6-4 3-8v-100l-3-10-4-6-8-5-3-1h-15l-14 4-11 6-7 5v101l2 11 5 6 7 2 12 1v11h-94v-11l12-2 5-3 3-4 2-11v-95l-2-15-4-7-6-3h-11v-13l5-2z" fill="#176944"/>
<path transform="translate(1285,1019)" d="m0 0h62l1 122 2 10 3 6 8 7 5 2 11 1 11-2 16-8 9-6v-102l-2-9-4-6-5-2-16-1-1-1v-11h73l1 123 1 16 3 7 7 3 13-1v12l-52 17h-17v-25l-15 11-17 9-13 4-5 1h-19l-13-4-10-6-6-5-7-10-4-11-2-10-1-97-2-12-3-6-6-3-6-1z" fill="#176944"/>
<path transform="translate(1873,1012)" d="m0 0h20l15 3 14 6 11 8 9 10 6 10 5 14 2 12v14h-113l2 15 5 17 8 14 9 10 11 7 12 4 10 1 13-2 11-4 11-7 8-8 6-9 6 2 3 2-2 9-9 17-11 14-9 9-14 9-9 4-12 3h-23l-15-4-14-7-10-8-9-10-9-15-5-14-4-18v-33l4-18 6-15 6-10 9-11 13-10 12-6 9-3z" fill="#176944"/>
<path transform="translate(1786,935)" d="m0 0h22l12 3 10 6 5 6 3 8v8l-3 8-7 6-4 2-9 1-9-3-8-8-9-13-5-3h-11l-5 3h-2l-2 5-3 9-1 9-1 37h33v21h-33l1 118 2 10 4 6 8 3 18 1v11h-105v-11l18-2 5-3 4-10 1-123h-28v-21h28v-12l2-14 6-16 7-11 9-10 10-8 16-8 14-4z" fill="#176944"/>
<path transform="translate(1535,935)" d="m0 0h18l1 222 2 11 4 6 3 2 11 2v11h-87v-11l12-2 5-2 2-5 2-10v-180l-1-11-4-8-5-3-10-1-2-4-1-8 14-3z" fill="#176944"/>
<path transform="translate(389,922)" d="m0 0h2v199l-25 25-8 7-17 17h-2v-199l37-37 8-7z" fill="#FEFFFF"/>
<path transform="translate(306,922)" d="m0 0h1v200l-28 28-8 7-14 14h-1v-200l32-32 8-7z" fill="#FEFFFF"/>
<path transform="translate(223,922)" d="m0 0h1v200l-27 27-8 7-15 15h-1v-200l33-33 8-7z" fill="#FEFFFF"/>
<path transform="translate(1635,1012)" d="m0 0h18l1 151 3 8 4 4 7 2 9 1v11h-96v-11l17-2 5-3 3-6 1-4v-109l-2-9-4-6-6-3h-12l-2-11 5-2z" fill="#176944"/>
<path transform="translate(994,1093)" d="m0 0h3v54l-10 8-15 8-7 2h-8l-9-4-7-8-4-11v-11l4-10 6-7 14-9 18-7z" fill="#FEFFFF"/>
<path transform="translate(1870,1028)" d="m0 0h14l9 4 8 9 4 9 2 11v10h-66l1-10 4-12 7-11 7-6z" fill="#FEFFFF"/>
<path transform="translate(1626,935)" d="m0 0h12l9 4 5 4 4 6 2 6v13l-5 10-7 6-10 4h-8l-11-4-8-8-3-7-1-10 3-10 4-6 8-6z" fill="#176944"/>
</svg>
