<?xml version="1.0" encoding="UTF-8"?>
<svg version="1.1" viewBox="0 0 820 1055" width="820" height="1055" xmlns="http://www.w3.org/2000/svg">
<path transform="translate(7)" d="m0 0h808v929l-3 16-5 12-6 10-9 10-13 9-14 7-39 14-40 12-48 12-40 8-45 7-44 5-42 3-25 1h-61l-42-2-45-4-45-6-41-7-41-9-41-11-35-11-31-11-19-9-15-12-9-12-5-11-4-16-1-9z" fill="#0059B2"/>
<path transform="translate(176,48)" d="m0 0h64l1 39 230 1v82l-3 19-5 9-8 8-9 4-9 2-22 1-26-1-8-1h-16l-10 3-6 4-4 8v8l12-7 16-4h8l16 4 17 5 5 1h18l9-4 9-5 2 3-1 4-8 8 14 1 1 91 22-13 21-13 8-5h150l68 35 10 7 5 8 1 3v15l-3 7-12 21-16 26 15 20 10 17 8 20 5 19 2 13 1 20-2 23-4 19-7 20-10 19-10 14-11 13-8 8-6 5-1 2 6 1 12 6 10 8 10 10 4 5-1 10-9 40-2 3h-6l-3-16-4-10-9-10-10-6-10-4-14-3-9-1-139-1 3 21v34l-1 9h-8l-4-23-7-25-9-21-9-17-11-16-9-11-9-10-17-17-11-9-15-12-18-13-13-9-1 40h-8l-8-17-12-18-10-13-12-13-6-6v-2l-4-2-9-9-11-9-17-13-20-14-18-13-6-4v43h-7l-4-8-9-19-12-19-10-13-11-13-9-10-15-16-17-16-8-8-8-7-7-7-8-7-16-17-13-16-10-16-6-12-9-27-3-16-1-20 2-19 4-16 8-17 8-11 9-9 8-5h1v17l-6 9-5 11-3 11-1 7v24l5 25 6 17 10 15 9 11 9 10 23 23 8 7 13 11 14 11 17 13 18 13 20 14 44 29 33 22 44 29 22 15 16 11 17 12 19 14 14 11 14 12 14 13 7 8 11 14 11 18 8 16 7 18 2 10 21-4 124-19 7-2 10-7 11-10 11-14 4-5-4-1-58-4-4-1-1 5-8 14h-4l1-10 2-10-17-3v-5l10-2h8l3-22 2-31-76-4-10-1v25h-5l-4-22v-3h-18l-1-4 1-1h18l-1-4-1-14v-44h-13l-21-1h-16l8 17 4 15 2 13v32l-3 16h-8l-2-18-4-17-6-16-8-16-9-14-8-10-12-13-11-10-17-13-14-10-19-12v41h-7l-4-10-8-18-10-15-9-11-14-14-17-13-15-10-17-10-26-14-17-9-16-11-12-11-9-10-8-13-6-15-3-14-1-9v-22l14 8 5 4 5 21 8 16 8 11 10 9 13 8 13 5 9 2 14 1 24-1 24-3 40-8 16-2h16l16 3 5 2v-27l-19 1-14 7-12 3h-20l-13-3-16-8-10-9-7-11-4-14v-20l3-10 5-8 7-7 10-5 11-3 8-1 64-1 10-5 3-5 1-51h-122v48l-9-3-35-14-2-1v-12h23v-18h-81v-39l-37 1-10 4-9 8-5 12v15l3 11 5 8 8 5 3 1 12 1v24l-16-1-11-3-14-7-10-9-6-7-7-14-3-13v-17l4-16 7-13 10-11 10-7 13-6 12-3z" fill="#FEDF01"/>
<path transform="translate(7)" d="m0 0h808v929l-3 16-5 12-6 10-9 10-13 9-14 7-39 14-40 12-48 12-40 8-45 7-44 5-42 3-25 1h-61l-42-2-45-4-45-6-41-7-41-9-41-11-35-11-31-11-19-9-15-12-9-12-5-11-4-16-1-9zm23 23v901l2 13 5 12 6 8 8 7 16 8 34 12 28 9 41 11 41 9 39 7 45 6 45 4 41 2h60l41-2 36-3 41-5 42-7 34-7 48-12 39-12 36-13 13-7 10-9 6-9 4-12 1-6v-905z" fill="#FDFDFD"/>
<path transform="translate(321,755)" d="m0 0h119l21 3 12 4 9 5 7 6 5 9 2 6v20l-5 12-9 10-9 6-11 4 15 4 14 7 9 8 7 14 1 5v22l-3 13-7 13-9 9-10 6-12 5-17 4-10 1h-98l-1-166-3-12-5-8-10-7-2-1z" fill="#FDFDFD"/>
<path transform="translate(97,755)" d="m0 0h125l16 2 16 5 9 5 6 5 7 11 3 11v22l-4 12-8 11-8 7-12 7-17 6 6 9 10 12 12 16 11 14 14 18 10 13 7 9v1h-55l-9-11-10-14-42-57-4-5-16-1v88h-46l-1-164-3-14-5-8-12-8z" fill="#FDFDFD"/>
<path transform="translate(76,379)" d="m0 0 4 2 6 4-3 18-1 10v12l3 14 5 13 7 11 9 11 15 15 14 11 13 10 23 16 17 11 22 14 24 15 19 12 22 15 14 10 17 13 11 9 12 11 8 7 7 7 7 8 11 14 11 18 7 15 6 18 2 11h-7l-10-18-10-14-11-13-14-14-14-11-13-10-22-14-24-14-16-9v43h-7l-8-16-10-18-10-14-8-10-12-14-18-18-11-9-12-10-14-10-14-11-15-13-12-12-11-14-7-10-8-16-5-15-2-11-1-15 2-18 5-15 6-11z" fill="#FEDF01"/>
<path transform="translate(647,755)" d="m0 0h28l22 3 17 5 6 3-1 7-7 25h-4l-7-9-13-9-10-3h-13l-23 3-12 4-11 7-7 8-7 14-4 15-2 16v23l2 14 5 16 6 11 9 10 8 6 10 5 14 4 7 1h20l16-3 13-5 11-6v22l-6 4-18 6-18 3-14 1h-14l-20-2-17-4-15-6-12-7-11-9-10-12-8-16-5-16-2-13v-29l3-17 5-15 7-13 8-10 9-9 14-9 13-6 17-5z" fill="#FDFDFD"/>
<path transform="translate(530,333)" d="m0 0h132l22 11 19 10 15 8-4 8-12 19-6 10-5-2-14-9 2-9 4-15-5-2-27-14-2-1-1 5 10 14-2 4-6 8-9-1-23-4h-31l-22 4-21 7-16 8-15 9-11 9-10 9-9 10-7 9-7-6-7-8-8-7-16-13-12-8 1-3 21-12 27-16 48-28z" fill="#0059B2"/>
<path transform="translate(388,852)" d="m0 0h42l14 3 12 6 7 9 3 9 1 13-3 14-5 9-5 6-11 7-13 4-8 1h-34z" fill="#0059B2"/>
<path transform="translate(167,773)" d="m0 0h34l16 3 9 6 5 8 2 7v20l-4 11-7 9-9 6-13 4h-34v-73z" fill="#0059B2"/>
<path transform="translate(564,471)" d="m0 0h14l55 2 5 24 2 24v5l-5 1-74 4h-7l5-38 4-21z" fill="#0059B2"/>
<path transform="translate(386,773)" d="m0 0h35l13 2 8 4 6 7 2 6v18l-5 10-5 5-8 5-12 3h-34z" fill="#0059B2"/>
<path transform="translate(661,547)" d="m0 0 66 4 5 1-1 12-6 20-2 5-74 9h-2l3-10 5-15 5-25z" fill="#0059B2"/>
<path transform="translate(663,476)" d="m0 0h21l37 2 8 19 5 20v5l-58 4h-11l-1-32z" fill="#0059B2"/>
<path transform="translate(393,333)" d="m0 0h28l16 4 8 4-4 4-32 19-20 12-5-2-15-10-26-16-5-4 32-7z" fill="#0059B2"/>
<path transform="translate(584,402)" d="m0 0h24l12 25 8 24-4 2-55 2 1-9 7-25 6-17z" fill="#0059B2"/>
<path transform="translate(546,416)" d="m0 0 1 2-4 23-2 17-5 2-43 2 2-5 15-16 14-12 18-11z" fill="#0059B2"/>
<path transform="translate(647,411)" d="m0 0 17 8 14 9 10 8 10 9 1 3-31 2h-10l-9-31z" fill="#0059B2"/>
<path transform="translate(376,243)" d="m0 0h19l6 2-4 5-9 6-6 2h-11l-11-3v-3l8-6z" fill="#0059B2"/>
</svg>
