<?xml version="1.0" encoding="UTF-8"?>
<svg version="1.1" viewBox="0 0 2048 2048" width="180" height="180" xmlns="http://www.w3.org/2000/svg">
<path transform="translate(0)" d="m0 0h2048v2048h-2048z" fill="#FCFCFC"/>
<path transform="translate(265,549)" d="m0 0h53l30 1v260l1 225 2 87 2 21 6 26 7 21 9 19 9 14 11 14 10 11 8 7 14 11 13 8 16 8 19 8 24 7 23 4 9 1h31l20-3 24-6 21-8 17-8 18-11 14-11 12-11 9-10 11-15 12-21 8-20 5-19 3-22 1-30v-55l1-471 1-30 14-1 109-1h81l1 5v324l1 169v107l-4 32-5 23-7 24-9 25-12 26-10 18-12 19-12 17-11 14-11 12-7 8-21 21-8 7-12 10-18 13-15 10-24 14-17 9-30 13-19 7-30 9-21 5-22 4-23 3-26 2h-29l-35-3-37-6-32-8-30-10-23-10-25-12-18-10-18-11-18-13-12-9-13-11-10-9-22-22-9-11-12-15-14-20-12-19-14-27-11-26-9-27-6-24-5-28-2-22v-421l1-174 19-1z" fill="#19438C"/>
<path transform="translate(1256,548)" d="m0 0h23l4 4 14 31 15 34 19 42 17 37 16 36 36 78 19 41 30 65 16 34 13 28 15 33 13 28 19 41 12 26 32 69 16 34 8 20v8l-11 22-15 33-8 17-13 28-9 19-12 26-13 28-16 34-9 20-16 32-3-1-4-9-12-25-15-31-11-24-14-29-12-26-15-32-11-24-48-104-14-30-16-35-18-39-26-56-32-69-14-30-30-65-13-28-17-37-18-39-15-32-13-28-18-40-14-30-13-28-12-26-13-28v-2h90z" fill="#19438C"/>
<path transform="translate(1666,548)" d="m0 0 26 1h222l-3 10-11 24-8 16-18 39-13 28-17 36-7 16-7 14-13 28-9 19-14 31-6 8-9 1h-196l-33-1-10-1 3-9 8-16 17-36 13-28 18-39 13-28 16-34 15-33 13-27 8-14z" fill="#0283AC"/>
<path transform="translate(1539,815)" d="m0 0 1 2 43 1h196l9-1 2-1-3 9-13 29-18 38-17 35-26 56-15 33-17 36-16 34-14 29-12 25-4 6h-2l-11-23-9-21-19-42-22-48-7-16-7-15-19-40-13-28-12-27-1-3v-9l6-17 17-35z" fill="#90D2ED"/>
<path transform="translate(1666,548)" d="m0 0 26 1h222l-3 10-11 24-8 16-18 39-13 28-17 36-7 16-7 14-13 28-9 19-14 31-2 1-4-7-10-18-8-13-9-20-16-35-18-39-9-20-15-33-8-16-12-25-15-32h-3z" fill="#19438C"/>
<path transform="translate(1537,819)" d="m0 0 4 5 4 2 8 14 6 12 8 18 14 29 12 26 8 16 15 33 16 36 8 17 8 16 10 23 7 9 4 1-2 6-17 35-11 23-4 6h-2l-11-23-9-21-19-42-22-48-7-16-7-15-19-40-13-28-12-27-1-3v-9l6-17 17-35z" fill="#BBDDEF"/>
</svg>
