<?xml version="1.0" encoding="UTF-8"?>
<svg version="1.1" viewBox="0 0 2048 393" width="1149" height="221" xmlns="http://www.w3.org/2000/svg">
<path transform="translate(142,1)" d="m0 0h23l6 10 12 24 10 19 21 41 12 23 35 68 14 27 8 15 8 16 8 15 8 16 24 47 12 23 18 35 6 11v2h-23l-11-22-10-19-20-39-15-29-2-4-1 15h-275l-8-16 1-7 17-33 21-41 8-15 20-40 10-19 10-20 10-19 11-22 10-19 10-20 10-19zm11 23-10 19-12 24-10 19-12 24-10 19-14 28-10 19-12 24-10 19-13 26-10 19-5 9v3h12l5-8 21-41 88-170 10-19-2-6-4-8zm18 34-12 24-10 19-12 24-10 19-14 28-10 19-13 26-10 19-14 28-5 9v3h12l5-8 10-20 10-19 22-43 10-19 22-43 10-19 17-33-7-14zm18 36-10 19-11 22-10 19-10 20-10 19-11 22-10 19-9 17-11 22v3h11l3-3 11-22 10-19 10-20 10-19 10-20 10-19 24-47-1-5-4-8zm18 33-10 19-20 40-10 19-28 56-7 13v2h151l-1-5-16-32-10-19-12-23-11-22-10-19-15-29z" fill="#0B0706"/>
<path transform="translate(1006,161)" d="m0 0 12 1 8 3 9 8 4 7 8-9 11-7 11-3h8l11 2 9 5 6 7 4 10 1 5v83l-17-1-14 1-1-7v-63l-3-14-5-6-2-1h-12l-6 3-3 4-2 7-1 77-17-1-14 1-1-16v-52l-2-13-5-8-4-2h-10l-6 3-4 6-2 8-1 74-17-1-15 1v-109h32l1 13 7-7 10-6z" fill="#0C0807"/>
<path transform="translate(1190,161)" d="m0 0 14 1 11 4 6 4 7 7 7 14 3 15v21l-3 15-8 16-6 7-10 6-13 4h-11l-10-3-8-6-4-5-1 68-3 1h-28v-166h30l1 15 4-6 7-7 9-4zm-7 15-8 3-6 8-4 11-2 14v16l3 17 4 8 7 6 8 1 8-4 6-7 4-12 1-6v-28l-4-16-4-6-6-4z" fill="#0B0706"/>
<path transform="translate(179,1)" d="m0 0h23l24 47 12 23 18 35 15 29 17 33 15 29 17 33 15 29 17 33 15 29 9 17 8 16 19 37v2h-22l-9-16-11-22-10-19-9-17-8-16-8-15-8-16-23-45-10-19-23-45-12-23-18-35-15-29-17-33-15-29z" fill="#0B0706"/>
<path transform="translate(216,1)" d="m0 0h22l10 19 17 33 15 29 21 41 30 58 18 35 15 29 17 33 15 29 17 33 15 29 11 21v3h-22l-12-23-15-29-20-39-14-27-17-33-15-29-17-33-15-29-17-33-15-29-17-33-15-29-12-23z" fill="#0B0706"/>
<path transform="translate(252,1)" d="m0 0h22l10 18 12 24 10 19 20 39 14 27 18 35 20 39 14 27 17 33 15 29 17 33 15 29 17 33 3 7h-23l-21-41-17-33-14-27-17-33-15-29-20-39-12-23-20-39-17-33-15-29-20-39-13-25z" fill="#0B0706"/>
<path transform="translate(550,116)" d="m0 0h17l13 31 20 50 29 72v4h-38l-4-10-11-33-1-4h-53l-2 9-13 37h-22l10-25 16-39 34-82zm-1 45-19 47-1 3 1 1h39l-3-10-15-40z" fill="#0B0706"/>
<path transform="translate(1582,161)" d="m0 0 14 1 10 4 5 4 6 10 3 12 1 14v66l-4 1h-28l-1-68-3-14-4-6-5-3h-11l-6 4-4 8-2 7-1 71-4 1-14-1-14 1v-109h30l1 14 10-9 11-6z" fill="#0B0706"/>
<path transform="translate(819,164)" d="m0 0h31l1 68 2 11 4 7 5 4 10 1 8-3 5-8 2-10 1-70h31v109l-16-1-14 1-1-14-10 9-12 6-5 1h-12l-11-3-8-5-7-8-3-7-1-5z" fill="#0B0706"/>
<path transform="translate(1440,161)" d="m0 0h10l16 3 10 4 9 7 8 9 5 11 2 8 1 15-2 16-5 13-6 9-5 6-11 7-10 4-11 2h-14l-14-3-12-6-10-9-6-10-4-11-1-6v-21l4-15 5-10 7-9 10-7 12-5zm2 11-8 4-6 9-3 11-1 7v33l4 16 4 6 6 5 2 1h9l6-4 5-6 5-16 2-18v-14l-2-15-5-12-7-6-3-1z" fill="#0B0706"/>
<path transform="translate(2e3 161)" d="m0 0 16 1 12 4 11 8 7 11 4 14 1 16-2 4h-63l2 18 4 9 4 6 8 5 8 2h9l13-4 8-5 4 1-3 10-3 5-10 5-16 4h-13l-15-3-14-7-9-9-5-8-4-11-2-11v-20l4-15 6-11 10-10 12-6zm0 11-6 4-5 8-3 13v10h32v-15l-3-12-6-7-2-1z" fill="#0B0706"/>
<path transform="translate(1714,118)" d="m0 0 33 1v136l34-2 18-1v19l-9 1h-76l-1-1v-152z" fill="#0B0706"/>
<path transform="translate(1929,102)" d="m0 0h16l3 2-1 10v18l-4 1-13-5h-15l-5 4 1 10 8 21 23 1v14l-21 1v93l-4 1-14-1-14 1v-95h-17v-14l16-1 6-24 8-16 8-11 8-6z" fill="#0B0706"/>
<path transform="translate(18,308)" d="m0 0h267v19l-1 1h-256l-5-8-5-10z" fill="#0B0706"/>
<path transform="translate(1294,124)" d="m0 0h1l1 39 18 1v14h-19l1 71 2 9 5 3h8l5-1v10l-13 4-5 1h-11l-10-3-8-7-4-10-1-6-1-70-14-1v-15h14l1-25z" fill="#0B0706"/>
<path transform="translate(35,340)" d="m0 0h244l6 1v19h-242l-8-18z" fill="#0B0706"/>
<path transform="translate(675,161)" d="m0 0 14 1 13 4 9 6-4 17-1 3h-7l-6-11-9-6-10-1-8 3-3 4-1 7 3 6 14 7 15 6 11 7 6 8 3 9v15l-4 11-8 9-14 7-11 2h-13l-16-4-9-5 3-21 1-1h6l6 10 8 6 6 2h8l8-3 5-6v-7l-3-5-16-8-16-7-10-9-5-10-1-4v-11l3-10 6-9 7-6 9-4z" fill="#0B0706"/>
<path transform="translate(762,161)" d="m0 0 15 1 12 4 9 5-1 9-3 11-1 1h-6l-6-10-7-6-6-2-10 1-6 4-2 3v8l4 5 10 5 20 8 8 6 6 7 3 7 1 5v10l-2 9-7 11-10 7-12 4-6 1h-14l-13-3-11-6 1-11 2-11h6l7 10 6 5 8 3h8l7-3 5-5 1-7-4-6-16-8-17-8-8-7-5-9-1-4v-15l4-11 7-8 5-4 12-5z" fill="#0B0706"/>
<path transform="translate(52,373)" d="m0 0h233v20h-224z" fill="#0B0706"/>
<path transform="translate(1823,164)" d="m0 0h32v109l-17-1-14 1-1-1z" fill="#0B0706"/>
<path transform="translate(1335,164)" d="m0 0h32v109h-31l-1-1z" fill="#0B0706"/>
<path transform="translate(1346,105)" d="m0 0h11l8 5 4 7v11l-5 8-7 4h-12l-6-4-4-5-2-6 1-9 4-6 5-4z" fill="#0B0706"/>
<path transform="translate(1833,105)" d="m0 0h12l6 4 5 6 1 3v10l-6 9-6 3h-12l-6-4-4-5-2-5v-7l4-8 6-5z" fill="#0B0706"/>
</svg>
