<svg xmlns="http://www.w3.org/2000/svg" viewBox="-153 -46 652 652" xmlns:v="https://vecta.io/nano"><path d="M-71.5 239.5c4.4 0 7.8 5.6 7.8 12.5s-3.5 12.6-7.8 12.6-7.8-5.6-7.8-12.6c0-6.9 3.5-12.5 7.8-12.5m60.6-72.3c5.6 0 10.1 7.3 10.1 16.2 0 9-4.5 16.2-10.1 16.2S-21 192.3-21 183.4c-.1-8.9 4.5-16.2 10.1-16.2m33.9-15c7.1 0 12.9 9.2 12.9 20.6s-5.8 20.3-12.9 20.3-12.9-8.9-12.9-20.3c.1-11.4 5.8-20.6 12.9-20.6m22.2 115.6h-.3l-3.8 135.4-7.6-9.4s-3.9-104.4-6-105c-2.1-.5-5 90.3-5 90.3s-5.7-4.4-7-7.6c-1.3-3.1-6.3-110.4-8.6-110.7-2.4-.3-5 98.1-5 98.1l-9.1-8.6-2.6-72.3-1.3-.3-4.2 67.3-8.4-10.2-1.8-80.2s-.8-6.5-2.4-8.1-4.7 7.5-11.2 14.9c-4.8 5.4-13.6 12.9-14.9 14.1-3.9 3.7-1.9 19.1-1.9 19.1l1.1 23.8c-.1 1-6.8-4.7-7.6-5.8-.8-1-4-19.1-4.8-19.8-.7-.6-2.3-.6-3 .4s-3 14.8-3.7 15.6c-.7.7-4.6-2.5-5-3.7-.3-1.2.4-13.3-3.4-21.9-3.7-8.6-5-9.7-7.1-12.7-3.7-5.3-7.4-16.7-6.3-17.6 1.1-1 3.9-1.4 5-.5 1 .9 1.8 12.5 9.4 17.4 4.7 3 15.7 1.4 18.3.2 3.5-1.6 11.2-5.8 14.6-12.1 1.6-3 5.2-7.8 7.3-13.3 1.9-4.9 2-3.9 5.5-13.9 4.6-13.1 8.7-15.6 11.4-17.4 2.9-1.9 26.2-13.5 45.2-13.1s22.9 3.1 25 1.5 1.5-55.7 4.4-93.5c4.5-57.8 16.7-83.5 14.9-83-3.1.8-27.2 18-44.6 58.2-14 32.2-16.2 49.9-27.5 51.4-11.5 1.6-18.4-25.2-21.9-21.7-3.4 3.4-2.3 67.7-9.9 78.3-7.3 10.2-25.4-1.2-34-7-26.9-18.3-46-53.9-50.1-53s13.8 35.2.8 44.9c-16.9 12.5-74.6-30.3-78.3-26.1s50.7 73.2 36.8 88.8c-8.6 9.7-25.1.8-28.7 5.8-3.9 5.3 21.4 28.2 37.6 41.2 37.9 30.6 75.7 46 85.9 52.5 9.6 6.2 10.6 9.9 9.4 23-.6 6.6-8.4 13-7.6 16.7s32.2.2 43.9 1.6c17.2 2.1 41.4 22 47.3 30.8 5.8 8.8 11.2 22.6 11.7 31.1s2.3 16.4 3.4 25.6c.2 1.8 8.5-7.6 15.4-12.5 5.1-3.6 8.9-3.3 8.9-8.4 0-6.3-6-16.8-9.9-67.6l-8.7-111m-205 188.5c8.6 0 15.5-4.1 15.5-13.6 0-6.9-3.8-10.2-13.2-13.7-5.4-2.1-6.6-3.1-6.6-5.3 0-2 1.6-3.4 4.9-3.4s7.4 1.3 11.3 3.5l1.6-9.1c-3.8-1.8-7.4-2.9-13.1-2.9-8.3 0-14.9 4.5-14.9 12.8 0 7.2 3.8 10 12.5 13.3 6.1 2.3 7.4 3.5 7.4 5.9 0 2.6-2.1 3.9-5.2 3.9-4.3 0-9.3-1.6-13.8-4l-1.6 9.2c4.4 2.2 9.3 3.4 15.2 3.4m20.9-31.3h9.6v30.8h-9.6V425zm4.8-4.1c-3 0-5.4-2-5.4-5.1s2.4-5.2 5.4-5.2c3.1 0 5.4 2 5.4 5.2 0 3.1-2.3 5.1-5.4 5.1m56.2 34.9v-21.9c0-6-3-9.6-8.7-9.6-3.8 0-6.9 2.1-9.6 4.8-1.1-2.8-3.5-4.8-7.7-4.8-4 0-6.8 2-9.6 4.8l-.7-4.2h-8.4v30.8h9.5v-20.3c1.7-1.6 3.3-2.7 5-2.7 2.2 0 3 1.5 3 3.7v19.3h9.5v-20.3c1.7-1.6 3.3-2.7 5-2.7 2.2 0 3 1.5 3 3.7v19.3h9.7zm21.1-23c-2.1 0-3.7 1.3-5.3 3.1v11.7c1.3.6 2.4.9 4.3.9 3.2 0 5.6-2.5 5.6-8.4.1-5.1-1.9-7.3-4.6-7.3m1.2 23.3c-2.8 0-4.7-.5-6.5-1.1v11l-9.5 1.4V425h8.4l.6 4.1c2.1-2.4 4.9-4.7 8.9-4.7 6.4 0 11.1 4.8 11.1 15.2 0 11.7-6.2 16.5-13 16.5m28-.3v-45.4l-9.6 1.5v43.9h9.6zM7.5 425h-9.2l-5.7 19-6-19.4-10.2 1.2 11.2 30.1-.4.9c-1 2.1-2.9 3-5 3-1.8 0-2.8-.2-3.8-.5l1.2 7.6c.9.2 1.7.4 3.6.4 6.7 0 10.5-2.8 13.3-10.8l11-31.5zm-167.3 31.3c8.6 0 15.5-4.1 15.5-13.6 0-6.9-3.8-10.2-13.2-13.7-5.4-2.1-6.6-3.1-6.6-5.3 0-2 1.6-3.4 4.9-3.4s7.4 1.3 11.3 3.5l1.6-9.1c-3.8-1.8-7.4-2.9-13.1-2.9-8.3 0-14.9 4.5-14.9 12.8 0 7.2 3.8 10 12.5 13.3 6.1 2.3 7.4 3.5 7.4 5.9 0 2.6-2.1 3.9-5.2 3.9-4.3 0-9.3-1.6-13.8-4l-1.6 9.2c4.4 2.2 9.3 3.4 15.2 3.4m20.9-31.3h9.6v30.8h-9.6V425zm4.8-4.1c-3 0-5.4-2-5.4-5.1s2.4-5.2 5.4-5.2c3.1 0 5.4 2 5.4 5.2 0 3.1-2.3 5.1-5.4 5.1m56.2 34.9v-21.9c0-6-3-9.6-8.7-9.6-3.8 0-6.9 2.1-9.6 4.8-1.1-2.8-3.5-4.8-7.7-4.8-4 0-6.8 2-9.6 4.8l-.7-4.2h-8.4v30.8h9.5v-20.3c1.7-1.6 3.3-2.7 5-2.7 2.2 0 3 1.5 3 3.7v19.3h9.5v-20.3c1.7-1.6 3.3-2.7 5-2.7 2.2 0 3 1.5 3 3.7v19.3h9.7zm21.1-23c-2.1 0-3.7 1.3-5.3 3.1v11.7c1.3.6 2.4.9 4.3.9 3.2 0 5.6-2.5 5.6-8.4.1-5.1-1.9-7.3-4.6-7.3m1.2 23.3c-2.8 0-4.7-.5-6.5-1.1v11l-9.5 1.4V425h8.4l.6 4.1c2.1-2.4 4.9-4.7 8.9-4.7 6.4 0 11.1 4.8 11.1 15.2 0 11.7-6.2 16.5-13 16.5m28-.3v-45.4l-9.6 1.5v43.9h9.6zM7.5 425h-9.2l-5.7 19-6-19.4-10.2 1.2 11.2 30.1-.4.9c-1 2.1-2.9 3-5 3-1.8 0-2.8-.2-3.8-.5l1.2 7.6c.9.2 1.7.4 3.6.4 6.7 0 10.5-2.8 13.3-10.8l11-31.5zm-170.2 61.6h-5.3V502h4.9c5.9 0 9.4-2.5 9.4-7.9.1-5-3-7.5-9-7.5m-.6 20.6h-4.6v17.6h-5.9v-43.4h11.5c9.2 0 14.7 4.5 14.7 12.5 0 8.8-6.3 13.3-15.7 13.3m31.9-8.7c-3.5 0-6.4 2.5-7.3 7.6h14.5c-.8-4.8-2.9-7.6-7.2-7.6m12.8 11.9H-139c.2 7 3.5 10.3 8.8 10.3 4.3 0 7.5-1.7 10.8-4.3l.8 5c-3.2 2.5-7 4-12 4-7.8 0-13.9-4.7-13.9-15.7 0-9.6 5.7-15.6 13.2-15.6 8.7 0 12.8 6.7 12.8 15v1.3zm24.2-.9c-11.1 1.1-13.4 4.1-13.4 7.2 0 2.5 1.6 4 4.5 4 3.3 0 6.4-1.6 8.9-4.2v-7zm1.1 15.3l-.6-4c-2.4 2.5-5.7 4.7-10.6 4.7-5.4 0-8.8-3.3-8.8-8.4 0-7.5 6.4-10.5 18.9-11.8V504c0-3.8-2.3-5.1-5.7-5.1-3.7 0-7.1 1.1-10.4 2.6l-.8-4.8c3.6-1.5 7-2.5 11.6-2.5 7.3 0 10.8 3 10.8 9.6v21h-4.4zm25.5.6c4 0 7.2-.9 10.3-3.2l-.8-5c-3.1 2.6-5.7 3.3-8.7 3.3-5.3 0-9-3.5-9-10.8 0-7 3.5-10.7 8.4-10.7 3.5 0 6.3 1.1 9.1 3.3l.8-5.5c-2.3-1.6-5.4-2.8-9.8-2.8-7.8 0-14.1 5.4-14.1 15.7-.2 10.1 5.7 15.7 13.8 15.7m28.1-26.9c-3.5 0-6.4 2.5-7.3 7.6h14.5c-.7-4.8-2.9-7.6-7.2-7.6m12.8 11.9h-20.4c.2 7 3.5 10.3 8.8 10.3 4.3 0 7.5-1.7 10.8-4.3l.8 5c-3.2 2.5-7 4-12 4-7.8 0-13.9-4.7-13.9-15.7 0-9.6 5.7-15.6 13.2-15.6 8.7 0 12.8 6.7 12.8 15v1.3zm33.1-11.6c-5.4 0-8.1 4.7-8.1 10.9s2.8 11 8.1 11c5.5 0 8.3-4.7 8.3-11 0-6.1-2.9-10.9-8.3-10.9m0 26.6c-8 0-13.8-5.7-13.8-15.6s5.8-15.7 13.8-15.7c8.1 0 14 5.8 14 15.7s-6 15.6-14 15.6m32.4-40.5c1.1 0 2.3.1 2.9.2l-.8-5.1c-.6 0-1.3-.1-2.4-.1-5.3 0-9.3 2.3-9.3 8.2v6.6h-4.5v4.7H29v25.3h5.5v-25.3h6.7l-.7-4.7h-6v-6c-.1-2.8 1.5-3.8 4.1-3.8m70.2 39.9l-3.4-43.4h-7.2L84.7 517l-13.5-35.6h-7.3l-3.5 43.4h5.5l2.6-34.6L82.3 525h4.5l13.7-34.8 2.7 34.6h5.6zm9-30h5.6v30h-5.6v-30zm2.8-6.1c-2 0-3.6-1.6-3.6-3.5 0-2 1.6-3.6 3.6-3.6 1.9 0 3.5 1.6 3.5 3.6 0 1.9-1.6 3.5-3.5 3.5m36.5 36.1V503c0-5.4-3-8.8-8.7-8.8-4.3 0-7.8 2.4-10.6 5l-.7-4.3h-4.5v30h5.6V504c2.7-2.9 5.7-4.9 8.7-4.9 3.3 0 4.6 2.1 4.6 5.2v20.5h5.6zm28.1-24c-2.3-1.2-4.2-1.7-7.4-1.7-4.7 0-8.1 3.8-8.1 11.3 0 6.6 3 10.1 7 10.1 3.5 0 6.1-2.1 8.5-5.3v-14.4zm1.2 24l-.7-4.3c-2.3 2.7-5.4 5-9.8 5-6.5 0-11.8-4.7-11.8-14.8 0-10.9 6.3-16.2 13.6-16.2 3 0 5.7.6 7.6 1.3v-15.5l5.6-.9v45.4h-4.5zm-349.1-38.2h-5.3V502h4.9c5.9 0 9.4-2.5 9.4-7.9.1-5-3-7.5-9-7.5m-.6 20.6h-4.6v17.6h-5.9v-43.4h11.5c9.2 0 14.7 4.5 14.7 12.5 0 8.8-6.3 13.3-15.7 13.3m31.9-8.7c-3.5 0-6.4 2.5-7.3 7.6h14.5c-.8-4.8-2.9-7.6-7.2-7.6m12.8 11.9H-139c.2 7 3.5 10.3 8.8 10.3 4.3 0 7.5-1.7 10.8-4.3l.8 5c-3.2 2.5-7 4-12 4-7.8 0-13.9-4.7-13.9-15.7 0-9.6 5.7-15.6 13.2-15.6 8.7 0 12.8 6.7 12.8 15v1.3zm24.2-.9c-11.1 1.1-13.4 4.1-13.4 7.2 0 2.5 1.6 4 4.5 4 3.3 0 6.4-1.6 8.9-4.2v-7zm1.1 15.3l-.6-4c-2.4 2.5-5.7 4.7-10.6 4.7-5.4 0-8.8-3.3-8.8-8.4 0-7.5 6.4-10.5 18.9-11.8V504c0-3.8-2.3-5.1-5.7-5.1-3.7 0-7.1 1.1-10.4 2.6l-.8-4.8c3.6-1.5 7-2.5 11.6-2.5 7.3 0 10.8 3 10.8 9.6v21h-4.4zm25.5.6c4 0 7.2-.9 10.3-3.2l-.8-5c-3.1 2.6-5.7 3.3-8.7 3.3-5.3 0-9-3.5-9-10.8 0-7 3.5-10.7 8.4-10.7 3.5 0 6.3 1.1 9.1 3.3l.8-5.5c-2.3-1.6-5.4-2.8-9.8-2.8-7.8 0-14.1 5.4-14.1 15.7-.2 10.1 5.7 15.7 13.8 15.7m28.1-26.9c-3.5 0-6.4 2.5-7.3 7.6h14.5c-.7-4.8-2.9-7.6-7.2-7.6m12.8 11.9h-20.4c.2 7 3.5 10.3 8.8 10.3 4.3 0 7.5-1.7 10.8-4.3l.8 5c-3.2 2.5-7 4-12 4-7.8 0-13.9-4.7-13.9-15.7 0-9.6 5.7-15.6 13.2-15.6 8.7 0 12.8 6.7 12.8 15v1.3zm33.1-11.6c-5.4 0-8.1 4.7-8.1 10.9s2.8 11 8.1 11c5.5 0 8.3-4.7 8.3-11 0-6.1-2.9-10.9-8.3-10.9m0 26.6c-8 0-13.8-5.7-13.8-15.6s5.8-15.7 13.8-15.7c8.1 0 14 5.8 14 15.7s-6 15.6-14 15.6m32.4-40.5c1.1 0 2.3.1 2.9.2l-.8-5.1c-.6 0-1.3-.1-2.4-.1-5.3 0-9.3 2.3-9.3 8.2v6.6h-4.5v4.7H29v25.3h5.5v-25.3h6.7l-.7-4.7h-6v-6c-.1-2.8 1.5-3.8 4.1-3.8m70.2 39.9l-3.4-43.4h-7.2L84.7 517l-13.5-35.6h-7.3l-3.5 43.4h5.5l2.6-34.6L82.3 525h4.5l13.7-34.8 2.7 34.6h5.6zm9-30h5.6v30h-5.6v-30zm2.8-6.1c-2 0-3.6-1.6-3.6-3.5 0-2 1.6-3.6 3.6-3.6 1.9 0 3.5 1.6 3.5 3.6 0 1.9-1.6 3.5-3.5 3.5m36.5 36.1V503c0-5.4-3-8.8-8.7-8.8-4.3 0-7.8 2.4-10.6 5l-.7-4.3h-4.5v30h5.6V504c2.7-2.9 5.7-4.9 8.7-4.9 3.3 0 4.6 2.1 4.6 5.2v20.5h5.6zm28.1-24c-2.3-1.2-4.2-1.7-7.4-1.7-4.7 0-8.1 3.8-8.1 11.3 0 6.6 3 10.1 7 10.1 3.5 0 6.1-2.1 8.5-5.3v-14.4zm1.2 24l-.7-4.3c-2.3 2.7-5.4 5-9.8 5-6.5 0-11.8-4.7-11.8-14.8 0-10.9 6.3-16.2 13.6-16.2 3 0 5.7.6 7.6 1.3v-15.5l5.6-.9v45.4h-4.5z" fill="#d90514"/><path d="M157.3 158.2c-2.1 2.6-4.7 4.9-7.7 6.9-5.2 3.3-10.9 5-17 5-10 0-18-3.2-23.9-9.6-5.4-5.9-8.2-13.4-8.2-22.2 0-9 2.9-16.7 8.6-22.8 6-6.4 14-9.7 23.6-9.7 3.4 0 6.9.5 10.3 1.5 4.4 1.2 5.4 1.4 5.6 1.4.7 0 1.4-.2 2-.6a2.69 2.69 0 0 0 1.2-1.7l.2-.6h3.3l.9 22.1h-3.6l-.2-.6c-1.2-3.9-2.7-7.2-4.6-9.5-3.6-4.5-8.3-6.7-14.4-6.7s-11.1 2.4-14.9 7.2c-3.9 4.9-5.9 11.7-5.9 20.2 0 7.9 2.1 14.2 6.2 18.9 4.1 4.6 9.3 7 15.5 7 4.5 0 8.8-1.1 12.6-3.3 2.2-1.2 4.7-3.1 7.3-5.6l.6-.6 2.8 2.8-.3.5m29.3-7.5l-6-14.4-6 14.4h12zM174 168.6h-14.2v-2.8l.7-.1c1.4-.2 2.4-.7 3.1-1.5.5-.7 1.6-2.7 4.1-8.3l13.4-31.5h2.3l15.9 36.3c1.3 2.9 2 3.8 2.3 4.1s1.1.7 2.7.9l.7.1v2.7h-17.7v-2.8l.8-.1c2.4-.2 3.1-.4 3.3-.5l.3-1c0-.1 0-.5-.3-1.4-.2-.7-.5-1.5-.8-2.3l-2.3-5.6h-15.5l-2.7 7c-.4 1-.4 1.6-.4 1.9 0 .9.4 1.3.8 1.5.3.1 1 .3 2.7.5l.8.1v2.8zm50.8-2.8l-.7-.1c-2.7-.3-3.6-.8-3.9-1.1-.6-.6-1.3-2.2-1.3-6.2v-22.2l26.7 33.1h2.3v-34.1c0-4 .6-5.4 1-5.8.4-.5 1.5-1.2 4.2-1.5l.7-.1V125h-16.5v2.8l.8.1c2.8.2 3.7.8 4 1.1.6.6 1.3 2.1 1.3 6.1v18.6l-22.9-28.4-.2-.3h-12v2.8h.8c1.2 0 2.1.2 2.6.4.3.1 1 .6 2 1.8l.7.8v27.5c0 4.1-.6 5.4-.9 5.8-.4.5-1.5 1.2-4.5 1.5l-.7.1v2.8h16.5v-2.7zm59.2-15.1l-6-14.4-6 14.4h12zm-12.5 17.9h-14.2v-2.8l.7-.1c1.4-.2 2.4-.7 3.1-1.5.5-.7 1.7-2.7 4.1-8.3l13.4-31.5h2.3l16 36.3c1.3 2.9 2 3.8 2.3 4.1s1.1.7 2.7.9l.7.1v2.7h-17.7v-2.8l.8-.1c2.4-.2 3.1-.4 3.3-.5l.3-1-.3-1.4c-.2-.7-.5-1.5-.8-2.3l-2.3-5.6h-15.5c-1.4 3.4-2.4 6.1-2.7 7-.4 1-.4 1.6-.4 1.9 0 .9.4 1.3.8 1.5.3.1 1 .3 2.7.5l.8.1v2.8zm48.2-5.7c0 .7.1 1.2.4 1.3h0c.2.1.8.4 2.7.4 4.8 0 8.7-.9 11.7-2.8 4.7-2.9 6.9-7.7 6.9-14.7 0-6.2-1.9-10.9-5.7-14-3.3-2.7-7.7-4-13.2-4-1.7 0-2.3.2-2.4.3-.2.1-.4.6-.4 1.3v32.2zm17 3.9c-3.3 1.2-7.4 1.8-12.2 1.8h-18.4v-2.8l.8-.1c2.6-.3 3.7-.7 4.1-1.1.2-.1.7-.8.7-3.8v-28.1c0-2.7-.5-3.6-.8-3.8-.3-.3-1.2-.8-4-1l-.8-.1V125H324c5.8 0 10.8 1 14.9 2.9 7.4 3.5 11.2 9.9 11.2 18.9a22.51 22.51 0 0 1-2 9.3c-1.3 3-3.4 5.5-6.1 7.5-1.7 1.5-3.5 2.5-5.3 3.2m44.8-16.1l-6-14.4-6 14.4h12zm-12.6 17.9h-14.2v-2.8l.7-.1c1.4-.2 2.4-.7 3.1-1.5.5-.7 1.7-2.7 4.1-8.3l13.4-31.5h2.3l15.9 36.3c1.3 2.9 2 3.8 2.3 4.1s1.1.7 2.7.9l.7.1v2.7h-17.7v-2.8l.8-.1c2.4-.2 3.1-.4 3.3-.5l.3-1-.3-1.4c-.2-.8-.5-1.5-.8-2.3l-2.3-5.6h-15.5l-2.7 7c-.4 1-.4 1.6-.4 1.9 0 1 .4 1.3.8 1.5.3.1 1 .3 2.7.5l.8.1v2.8zm-231.3 56.5c0-5.2-2.2-8.7-6.7-10.7h0c-2.5-1.1-5.6-1.6-9.4-1.6-2.4 0-2.9.3-2.9.4 0 0-.3.3-.3 1.8v22.9c1.2.1 2 .2 2.4.2h1.4c4 0 7.2-.6 9.5-1.7 4-2 6-5.7 6-11.3m5.1-12.7c4.3 3.1 6.5 7.3 6.5 12.5 0 6.5-2.4 11.2-7.2 14.2-4.6 2.9-10.5 4.3-17.4 4.3-1 0-2.2 0-3.8-.1-1 0-1.9-.1-2.5-.1v15.7c0 4.1.8 5.4 1.3 5.8.6.5 2.3 1.2 6.6 1.5l.8.1v3.3H99.7v-3.3l.8-.1c4.2-.4 5.5-1.3 5.9-1.7.5-.6 1.1-2.3 1.1-6.6v-39.4c0-3.6-.7-5.1-1.2-5.7-.6-.6-2-1.3-5.8-1.7l-.8-.1v-3.3h24.8c7.9.1 14 1.6 18.2 4.7m24.9 33.8c4-.2 6.9-.6 8.6-1.3 3-1.2 4.5-3.5 4.5-7 0-3.3-1.3-5.5-4-6.7-1.5-.7-3.5-1-6-1-2.3 0-2.8.2-2.8.3-.1 0-.2.3-.2 1.1v14.6m-.1 4v11.6c0 2.8.6 3.6.8 3.8.3.3 1.3.8 4.2 1l.8.1v2.8h-19.2v-2.8l.8-.1c3-.3 3.8-.9 4-1.1.3-.3.7-1.3.7-4.5v-27.3c0-2.6-.5-3.5-.8-3.8s-1.2-.8-3.9-1.1l-.8-.1v-2.8h18.3c3.7 0 6.9.5 9.4 1.4 4.9 1.9 7.4 5.4 7.4 10.4 0 3.4-1.1 6-3.4 7.9-1.9 1.5-4.3 2.6-7.3 3.3l12.1 14.9c.7.9 1.4 1.5 2.2 1.9.7.4 1.6.6 2.7.7l.8.1v2.8H185l-15.8-19.4-1.6.3zm41.7-2.3c0 6.4 1.3 11.2 3.7 14.2 2.5 3 5.4 4.5 9 4.5 3.5 0 6.4-1.4 8.9-4.3s3.8-7.7 3.8-14.3-1.3-11.5-3.8-14.4-5.5-4.3-8.9-4.3c-3.6 0-6.5 1.5-9 4.5-2.4 2.9-3.7 7.6-3.7 14.1m-2.6 16.3c-4.1-4.2-6.2-9.7-6.2-16.3 0-6.9 2.2-12.6 6.6-16.8h0c4-3.9 9-5.8 14.9-5.8s10.9 2 14.9 5.8c4.4 4.2 6.6 9.8 6.6 16.8 0 7.1-2.3 12.8-6.8 16.9-4.1 3.7-9 5.6-14.7 5.6-6.1.1-11.3-2-15.3-6.2m67.2-33.8c4.3 0 6 .7 6.6 1.3.7.6 1.7 2.2 2.6 6.1l.1.7h3.1l-.4-12.4h-37.3l-.4 12.4h3.1l.1-.7c.7-4 1.8-5.5 2.5-6.1 1.1-.9 3.3-1.3 6.6-1.3h2.7v30.7c0 3.4-.5 4.3-.7 4.5s-1.1.8-4.5 1.1l-.8.1v2.8h20.1v-2.8l-.8-.1c-3.1-.2-4.2-.7-4.5-1-.2-.2-.8-.9-.8-3.8v-31.5h2.7zm51.1 27.3c-1.5 3.4-3.2 5.5-5.1 6.4s-5 1.3-9.1 1.3c-5 0-6.5-.2-6.9-.3-.2 0-.6-.2-.6-1.4v-14.8h8.9c3.2 0 4.2.6 4.5.9.4.5 1.1 1.6 1.6 4.4l.1.7h3v-16.2h-3l-.1.7c-.5 2.8-1.1 4-1.6 4.4-.3.3-1.3.9-4.5.9h-8.9v-13.2c0-.8.1-1.1.1-1.1.1 0 .3-.1 1.1-.1h8.6c4.3 0 6 .6 6.6 1.1s1.5 1.7 2.1 4.9l.1.7h3.1l-.2-10.7h-35.2v2.8l.8.1c2.8.2 3.7.7 4 1s.8 1.2.8 3.8v28.1c0 2.9-.6 3.6-.7 3.8-.3.3-1.2.7-4.1 1l-.7.1v2.8h35.6l3.3-12.3h-3.4l-.2.2zm44.8 2.3c-1.8 1.7-3.5 3-5 3.9-2.6 1.5-5.5 2.2-8.6 2.2-4.3 0-7.8-1.6-10.6-4.8s-4.2-7.5-4.2-12.9c0-5.9 1.4-10.6 4-13.9 2.7-3.3 6-4.9 10.2-4.9s7.4 1.5 9.8 4.5c1.3 1.6 2.4 3.8 3.2 6.5l.2.6h3l-.6-15.9h-2.8l-.4.7c-.1.5-.4.8-.7 1.1l-1.2.4c-.2 0-.9-.2-3.8-1-2.5-.7-4.9-1.1-7.3-1.1-6.8 0-12.3 2.3-16.6 6.8-4 4.3-6 9.7-6 16 0 6.2 1.9 11.4 5.7 15.6 4.1 4.5 9.8 6.8 16.8 6.8 4.3 0 8.3-1.2 12-3.5 2.2-1.4 4-3 5.4-4.8l.5-.6-2.3-2.3-.7.6zm7.5-33.9l-.4 12.4h3.1l.1-.7c.7-3.9 1.8-5.5 2.6-6.1 1.1-.9 3.3-1.3 6.6-1.3h2.7v30.7c0 3.4-.5 4.3-.7 4.5s-1.1.8-4.5 1.1l-.8.1v2.8h20v-2.8l-.8-.1c-3.1-.2-4.2-.7-4.5-1-.2-.1-.8-.9-.8-3.8v-31.5h2.7c4.3 0 6 .7 6.6 1.3.7.6 1.7 2.2 2.6 6.1l.1.7h3l-.4-12.4h-37.2zm41.4 2.8h.8c3.1.2 4.1.7 4.5 1 .3.3.9 1.2.9 3.9v28.1c0 2.9-.6 3.7-.8 3.9-.4.3-1.4.8-4.5 1l-.8.1v2.8h20.4v-2.8l-.8-.1c-3.1-.2-4.2-.7-4.5-1-.2-.2-.8-.9-.8-3.9v-28.1c0-2.7.5-3.6.9-3.9.3-.3 1.4-.8 4.5-1h.8v-2.8h-20.4v2.8zm59.3 19c0-6.6-1.3-11.5-3.8-14.4s-5.5-4.3-8.9-4.3c-3.6 0-6.5 1.5-9 4.5s-3.7 7.8-3.7 14.2 1.3 11.2 3.7 14.2 5.4 4.5 9 4.5c3.5 0 6.4-1.4 8.9-4.3 2.5-3.1 3.8-7.9 3.8-14.4m-12.7-22.7c5.9 0 10.9 2 14.9 5.8 4.4 4.2 6.6 9.8 6.6 16.8 0 7.1-2.3 12.8-6.8 16.9-4 3.7-9 5.6-14.7 5.6-6.1 0-11.3-2.1-15.3-6.3-4.1-4.2-6.2-9.7-6.2-16.3 0-6.9 2.2-12.6 6.6-16.8 4-3.7 9-5.7 14.9-5.7m55.1.9v2.8l.8.1c2.8.2 3.7.8 4 1.1.6.6 1.3 2.1 1.3 6.1v18.6l-23.1-28.7h-12v2.8h.8c1.2 0 2.1.2 2.6.4.4.1 1 .6 2 1.8l.7.8v27.5c0 4.1-.6 5.4-.9 5.8-.4.5-1.5 1.2-4.5 1.5l-.7.1v2.8h16.5v-2.8l-.7-.1c-2.7-.3-3.6-.8-3.9-1.1-.6-.6-1.3-2.2-1.3-6.2v-22.2l26.4 32.8.2.3h2.3v-34.1c0-4 .6-5.4 1-5.8.5-.5 1.6-1.2 4.3-1.5l.7-.1V226h-16.5zm-382.8 100c0-5.2-2.2-8.7-6.7-10.7h0c-2.5-1.1-5.6-1.6-9.4-1.6-2.4 0-2.9.3-2.9.4 0 0-.4.3-.4 1.8v22.9c1.2.1 2 .2 2.4.2h1.4c4 0 7.2-.6 9.5-1.7 4.1-2 6.1-5.7 6.1-11.3m5.1-12.7c4.3 3.1 6.5 7.3 6.5 12.5 0 6.5-2.4 11.2-7.2 14.2-4.6 2.8-10.5 4.3-17.4 4.3-1 0-2.2 0-3.8-.1-1 0-1.9 0-2.5-.1v15.7c0 4.1.8 5.4 1.3 5.8.6.5 2.3 1.2 6.6 1.5l.8.1v3.3H99.7v-3.3l.8-.1c4-.4 5.4-1.2 5.9-1.7.5-.6 1.1-2.3 1.1-6.6v-39.4c0-3.6-.7-5.1-1.2-5.7-.6-.6-2-1.3-5.8-1.7l-.8-.1v-3.3h24.8c7.9 0 14 1.6 18.2 4.7m45.7 45c-1.8 3.6-3.6 5.9-5.3 6.7-1.8.9-5.6 1.3-11 1.3h-2.9c-.5 0-1-.1-1.4-.1-.6-.1-.9-.2-.9-.3-.2-.3-.2-.7-.2-1.2v-30.3c0-2.4.5-3.2.9-3.4.4-.4 1.5-.8 4.2-1h.8v-2.8h-19.5v2.8l.8.1c2.8.2 3.7.7 4 1s.8 1.2.8 3.8v28.1c0 2.9-.6 3.6-.7 3.8-.3.3-1.3.8-4.1 1l-.7.1v2.8h35.4l3.6-12.6H189l-.6.2zm27.2-20.1l-6 14.4h12l-6-14.4zm21.1 28.5c.3.3 1.1.7 2.7.9l.7.1v2.7h-17.7v-2.8l.8-.1c2.4-.2 3.1-.4 3.3-.5l.3-1c0-.2-.1-.5-.3-1.4-.2-.7-.5-1.5-.8-2.3l-2.3-5.6h-15.5c-1.6 3.9-2.4 6.2-2.7 7-.4 1.1-.4 1.6-.4 1.9 0 1 .4 1.3.8 1.4.2.1.9.3 2.7.5l.8.1v2.8h-14.2v-2.8l.7-.1c1.4-.2 2.4-.6 3.1-1.5.5-.7 1.7-2.7 4-8.3l13.4-31.5h2.4l15.9 36.3c1.2 2.9 1.9 3.8 2.3 4.2m35.7-36.9l.8.1c2.8.2 3.7.8 4 1.1.6.6 1.3 2.2 1.3 6.2v18.6l-23.1-28.7h-12v2.8h.8c1.5 0 2.2.2 2.6.4.3.1 1 .6 2 1.8l.7.8v27.5c0 4.1-.6 5.4-.9 5.8-.4.5-1.5 1.2-4.5 1.5l-.7.1v2.8h16.5v-2.8l-.7-.1c-2.7-.3-3.6-.8-3.9-1.1-.6-.6-1.3-2.2-1.3-6.2v-22.2l26.4 32.8.3.3h2.3v-34.1c0-4.1.6-5.4 1-5.8.4-.5 1.5-1.2 4.3-1.5l.7-.1v-2.8h-16.5v2.8zm29 6.2c.5-.2.9-.5 1.1-.9l.4-1.3c0-.7-.3-1.3-.8-1.8s-1.1-.7-1.9-.7l-1.1.2v4.8c1 0 1.8-.1 2.3-.3m4.4 5.6l.7.2v.4H304l-3.9-5.4h-1v4.1l.4.6c.2.1.6.2 1.2.2v.4h-4.9v-.4l.9-.2.4-.5c.1-.1.1-.6.1-1.2v-7-1.2l-.3-.5-.8-.2v-.5h5.2c1.3 0 2.3.3 3 .9s1 1.3 1 2.1c0 .7-.2 1.3-.7 1.8s-1.2.9-2.3 1.2l2.8 4 .7 1.2zm2.9-.8c.8-1.4 1.1-2.8 1.1-4.3s-.4-3-1.2-4.4-1.9-2.5-3.2-3.2c-1.4-.8-2.8-1.1-4.3-1.1s-2.9.4-4.3 1.1a7.08 7.08 0 0 0-3.2 3.2c-.8 1.4-1.2 2.8-1.2 4.4 0 1.5.4 2.9 1.2 4.3a8.2 8.2 0 0 0 3.2 3.2c1.4.8 2.8 1.2 4.3 1.2s2.9-.4 4.3-1.2c1.4-.7 2.5-1.8 3.3-3.2m-2.9-12.6c1.5.8 2.7 2 3.6 3.5.8 1.5 1.3 3.1 1.3 4.8a9.03 9.03 0 0 1-1.3 4.7c-.8 1.5-2 2.7-3.5 3.5s-3.1 1.3-4.7 1.3a9.03 9.03 0 0 1-4.7-1.3c-1.5-.8-2.7-2-3.5-3.5s-1.3-3.1-1.3-4.7c0-1.7.4-3.2 1.3-4.8.8-1.5 2-2.7 3.6-3.5 1.5-.8 3.1-1.2 4.7-1.2 1.4 0 3 .4 4.5 1.2"/></svg>