<?xml version="1.0" encoding="utf-8"?>
<!-- Generator: Adobe Illustrator 19.2.1, SVG Export Plug-In . SVG Version: 6.00 Build 0)  -->
<svg version="1.1" id="layer" xmlns="http://www.w3.org/2000/svg" xmlns:xlink="http://www.w3.org/1999/xlink" x="0px" y="0px"
	 viewBox="0 0 652 652" style="enable-background:new 0 0 652 652;" xml:space="preserve">
<style type="text/css">
	.st0{fill:#383838;}
	.st1{fill:#00874E;}
</style>
<path class="st0" d="M170.2,368.2h7.1v36.1h-7.1V368.2z"/>
<path class="st0" d="M208,389.6v14.7h-6.7v-13c0-4.6-1.7-6.3-4.6-6.3c-3.4,0-5.5,2.5-5.5,6.7v12.6h-6.7v-24.7h6.7v3.4l0,0
	c2.1-2.5,5-3.8,8-3.8C204.2,379.1,208,382,208,389.6z"/>
<path class="st0" d="M210.9,400.9l3.4-4.6c2.1,2.1,4.2,2.9,6.7,2.9c2.1,0,2.9-0.8,2.9-2.1c0-1.3-1.3-1.7-4.6-2.9
	c-4.2-1.3-7.5-3.4-7.5-8c0-4.6,3.8-7.5,8.8-7.5c3.4,0,6.3,0.8,8.8,2.9l-3.4,5c-2.1-1.7-4.2-2.5-5.9-2.5c-1.3,0-2.5,0.4-2.5,1.7
	c0,0.8,1.3,1.7,3.8,2.5c5.5,2.1,8.4,2.9,8.4,8c0,4.6-2.9,7.5-9.6,7.5C217.2,404.6,213.8,403.4,210.9,400.9z"/>
<path class="st0" d="M257.4,379.5v24.7h-6.7v-2.9l0,0c-1.7,2.1-4.6,3.4-7.1,3.4c-5.5,0-9.2-2.5-9.2-10.1v-14.7h6.7v13
	c0,4.6,1.3,5.9,4.6,5.9c2.9,0,5.5-2.5,5.5-7.1v-12.2C251.2,379.5,257.4,379.5,257.4,379.5z"/>
<path class="st0" d="M277.6,379.1v7.1c-0.8,0-1.3,0-1.7,0c-4.2,0-6.3,2.9-6.3,6.3v11.3h-6.7v-24.7h6.7v3.8l0,0
	c1.7-2.5,4.6-4.2,7.5-4.2C277.6,379.1,277.6,379.1,277.6,379.1z"/>
<path class="st0" d="M300.6,389.6v14.7h-6.3l-0.4-2.1l0,0c-1.7,1.3-4.2,2.5-6.7,2.5c-5.5,0-8.4-3.4-8.4-8c0-5,3.4-8,10.1-8h5
	c0-2.9-1.7-4.2-4.2-4.2c-2.1,0-4.6,0.8-6.7,1.7l-2.1-5c1.7-0.8,5.5-2.1,9.6-2.1C296.9,379.1,300.6,382,300.6,389.6z M294.3,396.3
	v-2.5h-4.6c-2.5,0-4.2,0.8-4.2,2.9c0,1.7,1.3,2.9,3.4,2.9C292.2,399.2,294.3,397.1,294.3,396.3z"/>
<path class="st0" d="M329.6,389.6v14.7h-6.7v-13c0-4.6-1.7-6.3-4.6-6.3c-3.4,0-5.5,2.5-5.5,6.7v12.6h-6.7v-24.7h6.7v3.4l0,0
	c2.1-2.5,5-3.8,8-3.8C326.2,379.1,329.6,382,329.6,389.6z"/>
<path class="st0" d="M333.8,391.6c0-7.5,5.5-12.6,13-12.6c3.8,0,8,1.7,10.5,4.6l-4.6,3.8c-1.3-1.7-3.4-2.5-5.9-2.5
	c-3.8,0-6.7,2.9-6.7,6.7c0,4.2,2.9,6.7,6.7,6.7c2.5,0,4.6-1.3,5.9-2.5l4.6,4.2c-2.1,2.5-5.9,4.6-10.9,4.6
	C339.2,404.6,333.8,399.6,333.8,391.6z"/>
<path class="st0" d="M383.2,393.7H366c0.8,2.9,2.9,4.6,6.3,4.6c2.5,0,4.6-1.3,5.9-2.9l4.2,4.2c-2.1,2.5-5.9,4.6-10.5,4.6
	c-7.1,0-12.6-5-12.6-13c0-7.5,5-12.6,12.2-12.6c7.1,0,12.2,5.5,12.2,12.6C383.2,392.5,383.2,393.7,383.2,393.7z M365.6,389.1h10.9
	c-0.8-2.5-2.5-4.2-5.5-4.2C368.6,384.9,366.5,386.2,365.6,389.1z"/>
<path class="st1" d="M195.4,266.3h-24.7V338h25.2c22.6,0,36.9-14.3,36.9-35.6C232.7,280.5,217.6,266.3,195.4,266.3z M194.6,325.8
	h-9.6v-47.4H195c13.4,0,22.6,10.1,22.6,23.9C218,316.2,208.4,325.8,194.6,325.8z"/>
<path class="st1" d="M20.6,269.6v64.6l56.2,32.3l56.2-32.3v-64.6l-56.2-32.3L20.6,269.6z M117.4,278.4v47l-40.7,23.5l-40.7-23.5v-47
	L76.7,255L117.4,278.4z"/>
<path class="st1" d="M519.1,272.6c0,4.2-3.4,7.5-7.5,7.5s-7.5-3.4-7.5-7.5s3.4-7.5,7.5-7.5S519.1,268.4,519.1,272.6z M517.8,288.5
	h-13v49.1h13V288.5z"/>
<path class="st1" d="M315.3,307.4c-5.5-2.1-7.1-3.4-7.1-5.5s1.7-3.4,4.6-3.4c5,0,8.4,2.5,11.7,5.5l7.5-8c-4.6-5-11.7-8.4-18.9-8.4
	c-10.5,0-17.6,5.9-17.6,14.7c0,9.6,7.5,13.8,15.1,15.9c0.8,0.4,1.7,0.4,2.5,0.8c4.2,1.3,6.7,2.1,6.7,4.6c0,1.3-0.8,3.8-5.9,3.8
	c-5,0-9.6-2.5-12.2-5.9l-7.5,8c5,5.9,11.7,8.8,19.7,8.8c11.7,0,18.9-5.9,18.9-14.7C332.1,314.5,325.8,311.6,315.3,307.4z"/>
<path class="st1" d="M602.9,307.4c-5.5-2.1-7.1-3.4-7.1-5.5s1.7-3.4,4.6-3.4c5,0,8.4,2.5,11.7,5.5l7.5-8c-4.6-5-11.7-8.4-18.9-8.4
	c-10.5,0-17.6,5.9-17.6,14.7c0,9.6,7.5,13.8,15.1,15.9c0.8,0.4,1.7,0.4,2.5,0.8c4.2,1.3,6.7,2.1,6.7,4.6c0,1.3-0.8,3.8-5.9,3.8
	c-5,0-9.6-2.5-12.2-5.9l-7.5,8c5,5.9,11.7,8.8,19.7,8.8c11.7,0,18.9-5.9,18.9-14.7C620.1,314.5,613.8,311.6,602.9,307.4z"/>
<path class="st1" d="M355.1,272.6c0,4.2-3.4,7.5-7.5,7.5s-7.5-3.4-7.5-7.5s3.4-7.5,7.5-7.5S355.1,268.4,355.1,272.6z M339.6,356.8
	c8.4,0,14.3-5.9,14.3-17.2v-50.7h-13v50.3c0,4.6-1.7,6.7-5,6.7c-1.7,0-2.9-0.4-4.2-1.3l-2.1,10.9
	C332.9,356.4,335.4,356.8,339.6,356.8L339.6,356.8z"/>
<path class="st1" d="M395.8,291.4c-3.4-2.1-8.4-3.8-13-3.8c-8,0-14.7,2.9-18.9,8.4c0.8,0.8,6.3,6.7,7.5,8c2.1-2.9,3.8-4.2,6.7-5
	c1.3-0.4,2.1-0.4,3.4-0.4c1.7,0,2.9,0.4,4.2,0.8c2.9,1.3,4.6,3.8,4.6,7.1v3.4c-0.4,0-4.2-1.7-10.9-1.7c-10.5,0-18,6.7-18,15.9
	c0,8.8,6.7,15.5,15.9,15.5c5.9,0,9.2-2.5,12.6-5h0.4v4.2h12.2v-32.3C402.9,299.4,400.4,294.4,395.8,291.4z M390.8,322
	c0,2.5-5,6.3-11.3,6.3c-3.8,0-6.3-2.5-6.3-5.9c0-2.1,1.3-5.9,8-5.9c5,0,10.1,1.7,10.1,1.7v3.8H390.8z"/>
<path class="st1" d="M426.8,294.4h-0.4v-5.9h-13v49.1h13v-21.8c0-8.8,4.6-15.1,15.5-15.1v-13C435.2,288.1,429.8,289.8,426.8,294.4z"
	/>
<path class="st1" d="M481.8,333.8h0.4v4.2h12.2v-71.7h-13v26.8h-0.4c-2.5-2.9-8.4-5-12.6-5c-15.5,0-23.9,13-23.9,25.6
	c0,9.2,4.2,15.5,7.5,18.9c4.6,4.2,10.5,6.7,16.8,6.7C471.7,338.8,476.3,338,481.8,333.8z M469.2,327.1c-7.1,0-12.6-5.9-12.6-13.8
	c0-8,5.5-13.8,12.6-13.8c8,0,12.6,7.1,12.6,13.8C481.8,320.8,476.3,327.1,469.2,327.1z"/>
<path class="st1" d="M541.7,292.7h-0.4v-4.2h-13v49.1h13V312c0-11.3,7.1-13,11.3-13c7.5,0,10.1,6.3,10.1,11.7v26.8h13v-26.4
	c0-14.7-8-23.5-21-23.5C545.5,287.7,541.7,292.7,541.7,292.7z"/>
<path class="st1" d="M288.1,312.8c0-14.7-10.1-24.7-24.3-24.7c-14.3,0-24.3,10.5-24.3,25.6s10.5,25.6,25.2,25.6
	c8.8,0,16.4-3.4,21-8.8c-0.8-0.8-6.7-7.1-7.5-8c-2.5,2.5-6.7,5.5-12.2,5.5c-6.7,0-11.3-3.8-13-10.1h34.8
	C288.1,316.6,288.1,314.5,288.1,312.8z M252.8,308.2c1.3-5.9,5.9-9.2,11.3-9.2c5.5,0,9.6,3.4,10.9,9.2H252.8z"/>
</svg>
