<svg xmlns="http://www.w3.org/2000/svg" width="1600" height="399" xmlns:v="https://vecta.io/nano"><path d="M194.438-.375l2.665.004C249.44-.177 296.347 21.143 334 57l2.141 1.98c33.989 32.4 52.922 81.941 54.043 128.281.649 44.149-11.473 86.776-39.184 121.738l-1.548 1.964c-9.304 11.56-9.304 11.56-15.327 12.599-4.236-.154-6.976-1.721-10.125-4.562-2.06-3.43-2.473-6.198-1.918-10.215 1.437-4.361 4.091-7.856 6.701-11.58 19.395-27.852 28.678-61.697 28.529-95.455l-.007-2.039c-.057-11.145-.719-21.853-3.306-32.711l-.602-2.535C346.149 135.006 331.83 108.989 311 87l-2.668-2.863c-27.09-28.491-67.046-46.148-106.301-47.418-13.921-.261-27.432.182-41.031 3.281l-2.201.488c-41.048 9.41-77.323 35.872-100.241 71.006C50.279 124.806 43.333 138.916 39 154l-.69 2.393c-12.864 45.671-5.392 91.838 17.147 133.251 2.287 4.046 4.9 7.754 7.668 11.48 3.107 4.336 5.159 7.502 4.488 12.934-1.207 3.821-2.432 5.344-5.613 7.941-3.081 1.054-5.777 1.519-9 1-4.598-2.557-7.936-5.789-11.25-9.812l-1.423-1.709C35.03 304.991 30.446 298.087 26 291l-2.051-3.184C6.867 259.848-.681 226.808-.437 194.313l.009-2.63C-.355 177.479.613 163.843 4 150l.649-2.716c8.09-32.915 24.719-62.294 47.538-87.222l1.401-1.537C89.39 20.18 142.635-.507 194.438-.375zm54.375 108.813C268.785 124.255 280.866 148.905 284 174c.294 5.087.325 10.156.313 15.25l.049 3.949c.006 12.304-2.023 24.013-5.986 35.676l-.765 2.255c-8.382 23.632-24.656 43.732-42.61 60.87-4.695-1.527-7.98-4.12-11.75-7.187l-3.711-2.969-1.819-1.465-7.095-5.566-2.148-1.668L207 272c1.356-3.08 2.824-4.945 5.313-7.187 19.944-19.545 34.264-45.856 35-74.062-.29-17.726-5.202-36.24-17.562-49.5-10.192-9.497-23.291-13.696-37.105-13.461-10.253.818-19.064 3.551-27.645 9.211l-1.918 1.23c-11.235 8.356-16.735 23.335-19.687 36.461-1.727 14.48-1.615 29.592 3.605 43.309l.731 1.945C158.367 247.665 180.039 270.782 203 289l2.969 2.449c29.34 23.999 63.588 41.543 97.445 58.23l2.285 1.127 5.598 2.713c2.42 1.325 4.032 2.31 5.703 4.48 1.011 3.901 1.404 6.091-.25 9.813-2.49 3.112-4.12 4.112-8.094 4.586-6.359-.177-12.232-2.65-18.156-4.773l-3.886-1.372c-29.84-10.618-62.732-23.174-88.29-42.269-2.366-1.261-2.366-1.261-5.223-.395-3.336 1.517-6.317 3.261-9.414 5.223C105.305 376.943 105.305 376.943 77 372c-3.043-1.987-4.621-3.32-5.437-6.937-.211-3.474.058-5.385 1.789-8.477 3.954-3.86 8.588-5.704 13.586-7.961l6.809-3.191 3.601-1.692c40.121-16.41 40.121-16.41 70.653-41.742l-1.664-.703c-5.45-3.026-9.84-8.006-14.336-12.297l-1.764-1.677c-26.467-25.322-44.695-57.348-45.52-94.635-.282-29.115 8.155-56.874 28.71-78.134 30.487-30.118 81.751-31.822 115.386-6.117z" fill="#00a4ac"/><path d="M496.611 107.853l2.944-.022 3.241-.008 3.405-.02 11.193-.041 3.854-.012 18.105-.042 20.897-.077 18.1-.05 7.699-.035 10.766-.016 3.223-.039c7.208.051 7.208.051 11.103 2.417 5.333 6.001 4.143 15.563 3.859 23.092l-.125 3.75c-.844 17.444-.844 17.444-5.266 22.996C608 161 608 161 604.625 161.312c-4.054-1.468-4.403-1.927-6.312-5.562-1.794-4.06-3.046-8.169-4.25-12.437-1.844-6.261-4.08-10.951-9.828-14.359-6.46-2.977-12.697-3.102-19.656-3.086l-2.729-.003c-1.896-.001-3.792.001-5.688.005a2167.08 2167.08 0 0 1-8.743-.006l-5.527.004-2.654-.006c-3.933-.378-3.933-.378-7.236 1.139-.124 2.208-.178 4.42-.205 6.631l-.03 2.099-.081 6.899-.063 4.771-.153 12.581-.161 12.829L531 198l2.282-.02 21.319-.135 10.96-.071 10.582-.058 5.991-.055 3.7-.001 3.25-.02c3.345.414 5.219 1.373 7.917 3.361 1.406 2.812 1.246 5.24 1.313 8.375l.113 3.461C598 216 598 216 596.23 218.352c-3.847 2.843-7.408 2.772-12.101 2.762h-3.628l-3.798-.016-3.502-.003-12.951-.032L531 221l1 80 19.75.125 6.155.055c14.773.079 29.012-.035 41.087-9.79 5.214-5.43 8.549-12.398 12.09-18.977C613 269 613 269 615 267c6.153-.559 6.153-.559 8.691 1.117 3.456 4.973 1.873 13.654.869 19.398C619.422 312.09 619.422 312.09 611 319c-2.896.965-4.756 1.134-7.769 1.154l-2.974.026-3.259.013-3.435.025-11.274.056-3.884.016-16.157.052-23.142.106-18.243.066-7.758.046-10.845.024-3.247.05c-7.249-.061-7.249-.061-11.186-3.006C486 315 486 315 485.5 312.375c.613-2.911 1.036-3.706 3.5-5.375l3.563-.937c3.403-.679 3.403-.679 4.636-2.688 1.086-3.219 1.053-6.036 1.055-9.435l.009-2.155-.005-7.149.011-5.125V265.59l.003-14.56-.011-24.453.004-28.281.005-24.27.003-14.501-.01-13.632.003-5.007-.011-6.826-.002-3.861c-.238-3.025-.545-4.723-2.252-7.198-2.163-1.123-2.163-1.123-4.625-1.75l-2.477-.734L487 120c-.75-3.25-.75-3.25-1-7 3.131-4.103 5.604-5.122 10.611-5.147zm212.702 61.897l3.725-.023c7.202.015 14.055.562 21.147 1.826 7.649 1.214 15.283.3 22.933-.53 3.003-.024 4.426.297 6.883 1.977 1.577 3.155 1.143 6.539 1.138 10.003l.009 2.536.011 8.459.015 6.045.026 13.042.053 20.607.149 58.606.088 32.349.039 17.131.044 16.106.006 5.922.03 8.063-.017 2.386c.029 4.067.029 4.067 1.703 7.677 2.706 1.691 5.631 2.312 8.706 3.066 1.217 6.33 1.217 6.33.25 9.313-1.802 2.433-3.684 3.539-6.59 4.3-4.869.71-9.749.614-14.66.638l-3.273.063-3.164.016-2.871.028c-3.294-.436-5.082-1.303-7.691-3.356-2.302-4.295-2.305-8.519-2.319-13.279l-.03-2.485-.065-8.1-.059-5.628-.128-14.791-.141-15.102L735 307l-1.429 1.457-1.889 1.911-1.866 1.895c-10.679 10.212-23.941 12.246-38.042 12.157-13.43-.375-24.52-5.48-34.462-14.545-16.447-17.709-20.2-42.409-19.598-65.66.999-22.442 7.271-44.534 24.285-60.215 14.418-11.101 29.51-14.361 47.313-14.25zm-28.062 28.813c-14.047 17.426-14.805 42.722-13.032 64.065 1.635 14.452 5.29 27.596 16.781 37.372 7.515 4.976 16.279 4.93 25 4 9.581-2.36 16.326-9.458 21.676-17.398 4.972-9.767 4.782-19.122 4.758-29.805l.016-5.306-.003-11.075.038-14.18.012-10.938.018-5.229-.013-7.301.029-2.17c-.071-4.803-1.097-7.253-4.531-10.599-16.299-8.451-38.066-4.594-50.75 8.563zm564.687-93.938l3.904-.113 3.748-.035 3.433-.06c2.977.583 2.977.583 5.315 2.866 2.785 4.554 2.801 8.384 2.867 13.689l.03 2.1.081 6.85.063 4.758.153 12.507.161 12.769L1266 185l1.659-1.472 2.179-1.923 2.159-1.91c9.504-8.043 22.37-10.246 34.44-10.07l3.054.031c14.991.313 27.428 4.642 38.45 15.114 6.027 6.53 9.51 13.723 12.371 22.043l.735 2.115c3.679 11.479 4.32 23.412 4.265 35.385l-.015 3.832c-.261 20.922-4.89 42.258-19.516 58.207-17.454 16.153-35.823 18.63-58.712 17.83-7.818-.463-15.254-2.055-22.761-4.271-4.695-1.292-8.679-1.453-13.309.09-1.829.168-3.664.266-5.5.313l-2.906.113c-2.594-.426-2.594-.426-4.231-1.982-1.842-3.304-1.783-6.286-1.754-9.97l-.018-2.307-.007-7.659-.026-5.49-.031-14.92-.051-15.616-.081-29.604-.154-52.979-.047-18.589-.03-11.581-.008-5.36-.018-7.335.003-2.126c-.026-4.721-.486-9.243-1.141-13.908l-3.875-.375c-3.875-.375-3.875-.375-6.125-2.625-.685-7.079-.685-7.079 1.813-10.437 5.529-3.949 12.615-2.866 19.125-2.937zm27.309 95.156c-8.394 10.266-8.851 21.799-8.777 34.453l-.012 4.947.021 10.307-.014 13.17.001 10.192-.01 4.856.028 6.789.01 3.89c.698 4.969 2.565 8.763 6.262 12.287 9.765 5.821 20.97 8.286 32.168 5.637 11.789-3.892 18.804-11.122 24.703-21.809 10.357-21.617 9.989-49.851 3.531-72.453-3.166-8.898-8.413-15.937-16.977-20.117-14.233-6.071-29.998-3.255-40.934 7.852zM809.125 173.75l3.285-.023 3.16.008 2.868.007c2.767.28 4.31.625 6.562 2.259 2.584 4.679 2.293 9.409 2.287 14.604l.021 2.914.028 6.255.053 9.914.112 21.063.136 24.373.036 9.739.041 6.016-.003 2.712c.081 8.26.836 15.866 6.29 22.41 6.007 4.249 11.81 4.938 19 4 13.881-4.828 20.808-14.246 27-27 1.647-4.92 2.249-9.162 2.243-14.341l.006-2.112-.018-6.841-.001-4.784-.023-9.993-.02-12.801-.013-9.865-.006-4.721-.022-6.591-.012-3.785c-.11-2.595-.362-4.706-1.134-7.167l-6.055-.488C873 189 873 189 871 186c-.456-3.569-.507-5.298 1.625-8.25 6.225-4.587 13.099-4.053 20.5-4l3.285-.023 3.16.008 2.868.007c2.737.276 4.303.698 6.562 2.259 4.167 7.084 3.157 16.412 3.189 24.363l.025 3.334.046 7.12.077 11.257.176 25.896.179 25.693.068 11.111.051 6.767.013 3.137.025 2.85.016 2.484c.013 2.061.013 2.061 1.136 3.986 2.113.907 2.113.907 4.563 1.625l2.504.789L923 307c1.154 4.038 1.043 6.302-1 10-3.448 3.413-6.333 3.386-11.066 3.398l-2.046.009c-1.423.002-2.846-.003-4.269-.016-2.177-.016-4.353 0-6.531.019l-4.154-.012-3.811-.01C887 320 887 320 885.129 318.663c-2.65-3.902-2.45-8.308-2.692-12.85l-.131-2.271L882 298l-1.687 1.941c-9.866 11.182-20.967 21.821-36.675 23.278-20.59.939-20.59.939-28.638-4.219l-1.895-1.109c-8.191-5.782-11.881-16.765-13.693-26.213-.626-4.065-.704-8.056-.699-12.163l-.021-2.694-.028-5.732-.053-9.081-.128-22.531-.12-19.096-.036-8.93-.041-5.482.003-2.494c-.049-4.519-.445-8.262-2.29-12.474-1.863-1.304-1.863-1.304-4.062-1.812-3.919-1.169-3.919-1.169-4.937-2.187-.582-6.171-.582-6.171 1.625-9.312 6.294-4.472 13.09-3.991 20.5-3.937zM1195 179c5.575 5.074 9.377 10.757 10.284 18.389.115 2.691.141 5.369.133 8.063l.026 3.078.034 10.01.047 6.985.087 18.35.158 29.39.041 10.253.031 6.291.003 2.872c.028 4.553.225 8.841 1.155 13.321l3.375.375C1214 307 1214 307 1216 309c.568 4.298.533 6.273-2.062 9.813-6.57 4.892-14.038 4.844-21.937 4.188-4.452-.846-7.85-2.062-11.375-4.937-2.519-4.748-3.523-9.828-4.625-15.062l-1.039 1.434c-8.39 10.601-20.644 17.523-33.961 19.566-13.309 1.246-25.545.473-36.285-8.312-7.394-7.276-10.048-17.345-10.183-27.476l.031-2.649.023-2.784c.279-11.505 3.782-20.243 12.016-28.357 11.059-9.256 26.632-12.936 40.273-16.547 16.428-3.382 16.428-3.382 29.125-12.875.444-4.277.324-8.577.313-12.875l.049-3.59.002-3.465.009-3.164c-.423-3.305-1.56-5.152-3.372-7.907v-2l-5-2-2.625-1.125c-8.665-2.246-16.549-1.202-24.375 3.125-3.955 2.753-6.155 5.432-8.5 9.625l-1.801 3.195c-1.531 2.866-2.976 5.754-4.387 8.68-3.289 6.6-3.289 6.6-6.312 8.5-2.838.658-5.171.728-8 0-5.249-4.834-5.508-12.192-6-19-.077-7.548.229-14.86 5-21 5.518-4.564 11.617-6.279 18.5-7.75l2.723-.629c19.155-4.322 46.113-7.184 62.777 5.379zm-27.57 68.449l-2.288.771-4.807 1.632-7.288 2.443-4.68 1.592-2.176.717c-6.508 2.25-13.092 5.442-17.566 10.834l-1.398 1.621c-4.515 7.147-4.256 16.379-2.762 24.453 1.641 5.097 4.307 7.519 8.535 10.488 5.261 2.631 13.192 1.58 18.797.422 11.252-3.942 19.97-13.955 25.203-24.422a175.43 175.43 0 0 0 .098-7.414l-.004-2.211-.031-7-.014-4.742L1177 245c-3.347 0-6.425 1.386-9.57 2.449zM1545 180c12.421 10.437 19.908 23.834 22 40 .205 2.96.275 5.909.313 8.875l.088 2.316c.062 5.661-1.079 10.145-4.4 14.809-3.803 2.535-6.832 2.267-11.235 2.227l-2.543.001-8.327-.033-5.772-.009-15.195-.049-15.504-.04L1474 248l.891 9.555.245 2.71c1.252 13.01 4.863 25.47 14.74 34.611 10.055 8.167 20.544 9.18 33.125 8.125 12.116-2.42 19.729-10.099 26.957-19.645 1.982-2.285 3.213-3.382 6.043-4.355 3.064.188 5.181.373 7.648 2.262 2.236 2.875 1.941 5.519 1.828 9.051-.846 4.773-3.468 7.998-6.477 11.688l-1.57 2.094c-8.895 11.173-23.51 17.735-37.43 19.906-19.379 1.48-38.679-.722-54.184-13.477-16.073-15.115-22.195-36.133-23-57.68-.519-22.659 3.314-46.557 18.559-64.219 20.909-21.755 58.382-26.704 83.625-8.625zm-62.551 17.887c-6.829 9.958-9.365 21.182-8.449 33.113 1.714 1.714 3.959 1.128 6.298 1.129l3.429.01 3.734-.006 3.808.003 7.995-.005 10.246.004 9.764-.001 3.722.006 3.448-.01 3.039-.002c2.646-.021 2.646-.021 5.518-1.127 3.262-6.523 1.432-17.825-.625-24.5-3.336-8.597-8.011-14.465-16.375-18.5-13.196-5.039-26.668-1.001-35.551 9.887zm-443.011-71.637l2.371.203c2.609.651 3.553 1.442 5.191 3.547.902 2.706 1.122 4.239 1.114 7.012v2.426l-.016 2.604-.004 2.678-.031 8.467-.014 5.74L1048 173l2.89-.032 10.617-.078 4.595-.041 6.605-.044 2.074-.031c3.649-.001 5.09.141 8.219 2.227.944 4.805.682 8.886-1.875 13.063-3.597 3.279-5.865 3.056-10.664 3.035l-3.945-.01-4.141-.025-4.164-.014L1048 191l.236 37.084.111 17.221.117 16.631.034 6.333.07 8.896-.004 2.622c.104 6.795.916 13.625 5.812 18.65 6.286 3.742 12.145 4.151 19.295 4.686l2.373.217 2.157.168c1.8.492 1.8.492 3.8 3.492.438 3.438.438 3.438 0 7-3.994 5.135-10.874 6.143-17 7-3.543.25-7.074.341-10.625.375l-2.637.042c-8.436-.06-17.272-1.685-23.738-7.417-6.702-9.07-8.31-17.524-8.227-28.547l-.001-3.107.033-10.096.009-7.028.049-18.445.04-18.843L1020 191l-3.613.105-4.699.082-2.381.076-2.295.029-2.111.048c-2.518-.451-3.375-1.318-4.901-3.341-.509-3.928-.572-6.128 1.625-9.48 2.703-2.868 5.387-4.52 8.813-6.457 7.99-4.717 11.812-9.017 14.563-18.062.98-4.678 1.674-9.404 2.373-14.131.868-5.301 1.563-9.028 5.627-12.869 2.448-1.224 3.734-1.016 6.438-.75zm360-21.562l3.76-.088 3.611-.025 3.306-.044c3.569.581 4.696 1.647 6.885 4.47 1.18 3.541 1.147 6.742 1.145 10.426l.011 2.311.018 7.69.02 5.504.036 11.865.065 18.756.182 53.34.107 29.45.056 18.649.046 11.601.012 5.383.031 7.345-.008 2.155c.041 3.929.435 7.029 2.28 10.526 1.881 1.192 1.881 1.192 4.063 1.75 3.901 1.213 3.901 1.213 4.938 2.25.465 6.159.465 6.159-1.312 9.375-4.402 4.239-11.762 2.925-17.511 2.975l-4.222.082-6.107.091-3.687.06c-3.16-.583-3.16-.583-5.326-2.636-2.263-3.637-2.392-6.538-2.34-10.69l-.018-2.341.01-7.754-.022-5.564-.011-11.976-.028-18.933-.046-29.944-.085-53.631-.018-18.825-.017-11.705.003-5.431-.01-7.41.014-2.174c-.03-3.943-.397-7.065-2.266-10.569-1.897-.951-1.897-.951-4.062-1.187-2.16-.355-2.16-.355-3.937-.812-1.444-2.889-1.377-4.796-1-8 6.039-7.344 12.585-6.244 21.438-6.312zm-438.375 69l3.26-.049 3.15-.002 2.852-.009c3.311.461 5.078 1.261 7.676 3.372 2.597 5.558 2.255 11.144 2.195 17.143l-.009 3.372-.036 7.234-.048 11.449-.112 26.367-.101 26.099-.063 11.277-.02 6.917-.031 3.165c-.001 5.018.065 9.334 2.227 13.978 1.863 1.304 1.863 1.304 4.063 1.813 3.919 1.169 3.919 1.169 4.938 2.188.564 5.732.564 5.732 0 8-3.915 3.932-6.658 4.519-12.129 4.566l-2.035.019a302.19 302.19 0 0 1-4.238-.009c-2.159-.014-4.313.02-6.471.058a948.07 948.07 0 0 1-4.131-.006l-3.776.002C955 320 955 320 952.832 318.187c-2.774-4.827-2.394-9.338-2.362-14.815l-.026-3.564-.018-9.65-.043-10.106-.06-19.135-.094-28.098-.01-2.081-.019-4.108-.037-13.972-.021-7.291.002-3.372-.012-3.076-.004-2.676c-.039-2.416-.039-2.416-1.127-5.245-2.068-.95-2.068-.95-4.5-1.562-2.469-.691-2.469-.691-4.5-1.437-1.42-2.841-1.315-4.855-1-8 5.226-7.235 14.031-6.337 22.063-6.312zM973 123c4.837 4.068 7.681 8.079 8.375 14.438-.62 5.892-2.345 9.921-6.75 13.875-5.062 3.971-9.108 5.35-15.625 4.688-5.89-1.974-9.462-4.96-13-10-1.938-5.814-2.021-11.921.688-17.437C954.37 120.05 962.441 117.329 973 123zm605-13h5l6 11 2.375-3.812L1596 110h4v21h-4l-1-9-4 7c-1.75-.062-1.75-.062-4-1-1.595-2.242-2.745-4.536-4-7l-1 10h-4v-21zm-18 0h17v4h-6v17h-5v-17h-6v-4z"/></svg>