<?xml version="1.0" encoding="UTF-8"?>
<svg version="1.1" viewBox="0 0 2048 1108" width="800" height="433" xmlns="http://www.w3.org/2000/svg">
<path transform="translate(1351,48)" d="m0 0h221l-3 23-16 110-4 27-2 23v12l2 19 4 20 9 27 8 17 11 18 10 13 9 10 6 7 8 7 15 12 18 11 16 8 21 8 26 6 19 2 35 1-1 12-21 138-19 124-11 73-1 2h-118v-193h-399l-4 17-23 84-24 87-2 5h-123l1-12 22-146 30-199 20-133 5-24 8-26 8-20 10-21 10-17 11-16 11-14 9-10 7-8 11-11 22-18 17-12 21-12 23-11 25-9 24-6 25-4z" fill="#7E888E"/>
<path transform="translate(626,48)" d="m0 0h142l3 7 24 87 25 91 72 261 22 80 24 87 22 80 10 35v2h-161l-16-57-22-80-15-55-278-1-2 5-14 25-14 24-14 25-14 24-32 56-14 24-6 10h-161l2-5 10-18 11-19 45-78 16-28 30-52 16-28 14-24 13-23 14-24 16-28 14-24 13-23 14-24 16-28 15-26 16-28 14-24 16-28 15-26 16-28 14-24 16-28 45-78zm39 214-6 9-14 25-10 17-45 78-16 28-14 24-1 4 157 1 1-3-11-39-18-66-20-73-2-5z" fill="#033DA1"/>
<path transform="translate(1629)" d="m0 0h291l26 6 20 8 16 9 13 10 13 12 10 12 10 15 9 19 6 20 3 18v29l-15 102-36 242-15 101v12l4 10 6 5 7 3 8 1 22 1v95h-78l-16-3-13-5-13-7-9-7-10-9-10-13-8-16-4-12-2-12v-265h-134l-21-3-21-6-21-10-15-10-10-9-8-7-11-13-9-14-8-16-6-17-4-19-1-8v-31l10-67 23-149z" fill="#7E888E"/>
<path transform="translate(83,238)" d="m0 0h157l-3 23-19 125-12 80-22 146-17 112-8 53-1 1h-155v-8l39-261 24-161 16-107z" fill="#033DA1"/>
<path transform="translate(170)" d="m0 0h26l19 5 12 5 10 6 9 7 13 13 9 14 6 14 4 15 1 7v18l-3 17-6 16-6 11-8 10-8 9-12 9-15 8-15 5-11 2h-24l-18-4-18-8-11-8-10-9-8-9-8-13-6-14-4-17-1-9v-9l3-19 5-15 9-16 9-11 7-7 11-8 10-6 16-6z" fill="#033DA1"/>
<path transform="translate(1229,634)" d="m0 0h143l-3 9-17 41-18 43-20 48-2 3h-122l2-10 26-94z" fill="#7E888E"/>
<path transform="translate(1343,878)" d="m0 0h20l18 3 16 6 15 8 9 7-1 4-9 11-11 13-4 4-11-8-12-6-11-3-10-1-16 2-11 4-11 8-8 9-7 14-3 14v16l3 13 6 12 9 10 8 6 13 6 14 2 14-1 15-4 10-5 1-27h-40l-1-1v-33l1-1h79v80l-10 8-16 9-15 6-15 4-15 2h-17l-18-3-19-7-14-9-10-9-9-10-8-13-6-16-3-15v-25l4-18 6-15 9-14 11-12 11-9 14-8 14-5 10-2z" fill="#053EA1"/>
<path transform="translate(1962,922)" d="m0 0h19l11 3 14 7 11 9 9 12 6 14 3 12 1 10v12l-3 19-6 15-9 13-9 8-12 7-13 4-6 1h-15l-15-4-12-7-8-8-1 58-40 1v-184h39l1 1v16l-1 2 8-7 7-6 12-6zm-9 34-12 6-8 9-5 11-1 4v18l4 12 6 8 7 6 11 4h13l10-4 9-7 6-10 3-14v-8l-2-10-6-12-4-5-9-6-6-2z" fill="#053EA1"/>
<path transform="translate(440,922)" d="m0 0h19l11 3 12 6 10 9v2h2v-18h38l2 1v139l-1 1h-39v-18h-2l-2 4-7 7-12 7-15 4h-12l-14-3-16-8-12-11-6-8-7-14-4-16-1-16 2-17 4-14 7-13 8-10 10-8 15-7zm11 34-9 4-7 5-6 9-4 11-1 11 2 13 6 12 7 7 10 5 3 1h14l10-4 10-9 6-12 2-14-2-13-4-10-9-10-9-5-3-1z" fill="#063EA1"/>
<path transform="translate(986,922)" d="m0 0h19l12 3 11 6 10 9 1 1 1-17h39l1 1v140h-40l-1-17-6 7-10 7-12 5-9 2h-12l-16-4-12-6-10-8-8-9-8-15-4-14-1-6v-24l3-14 6-15 8-11 9-9 14-8 9-3zm11 34-9 4-8 7-6 9-3 10v18l4 12 7 9 8 6 9 3h13l10-4 10-9 5-9 3-12v-9l-2-10-6-12-4-5-9-6-6-2z" fill="#053EA1"/>
<path transform="translate(2,881)" d="m0 0h140v37h-100v39h88v37l-87 1-1 71h-41v-184z" fill="#063EA1"/>
<path transform="translate(1617,922)" d="m0 0h23l16 4 14 7 10 8 10 10 8 13 5 12 3 15v11l-4 18-8 16-7 9-9 9-11 7-11 5-15 4-16 1-16-3-15-6-11-7-12-11-9-12-6-13-3-12-1-13 2-14 5-14 6-11 9-11 9-8 14-8 11-4zm8 34-12 3-10 6-7 9-4 10-1 7v9l3 11 5 9 7 7 12 6 4 1h14l11-4 9-7 6-9 3-10v-16l-4-12-7-9-8-6-10-4-4-1z" fill="#053EA1"/>
<path transform="translate(1728,924)" d="m0 0h26l13 1 1 85 3 10 6 7 6 3 11 1 10-3 5-4 5-10 1-7 1-82 4-1 36 1v140h-40l-1-17-6 7-10 7-12 5-9 2h-9l-13-3-11-6-8-8-7-14-3-15v-98z" fill="#053EA1"/>
<path transform="translate(310,922)" d="m0 0h17l13 4 10 7 7 8 5 11 3 13v100h-40l-1-86-4-11-4-5-10-4h-10l-10 4-6 8-2 6-1 8-1 80h-39l-1-1v-139l1-1h38v19l5-5 11-9 11-5z" fill="#053EA1"/>
<path transform="translate(638,922)" d="m0 0h16l13 4 9 6 8 9 5 10 3 13v101h-40l-1-87-4-11-7-6-7-2h-10l-8 3-5 5-4 7-1 4-1 86-1 1h-39v-141h38l1 1v18l11-11 10-6 9-3z" fill="#053EA1"/>
<path transform="translate(777,922)" d="m0 0h25l16 4 15 8 12 10-1 4-15 16-7 8-4-2-7-6-8-4-11-3-10 1-10 4-10 9-5 10-2 8v15l4 12 6 8 8 6 10 4h14l12-4 10-7 2-2 4 1 21 21-2 4-8 8-13 8-14 5-13 2h-13l-14-2-13-5-12-7-8-7-8-10-7-12-5-17-2-15 1-13 3-12 8-16 9-11 8-7 14-8 10-4z" fill="#053EA1"/>
<path transform="translate(1111,873)" d="m0 0h39l1 1v191h-40z" fill="#063EA1"/>
<path transform="translate(1532,922)" d="m0 0h11l1 1v39l-6 2-12 2-10 5-6 5-6 10-4 13-1 11-1 55h-39l-1-1v-139l1-1h39l1 26 8-13 8-8 10-5z" fill="#073FA1"/>
<path transform="translate(869,924)" d="m0 0h39l1 1v139l-1 1h-39z" fill="#063FA1"/>
<path transform="translate(165,924)" d="m0 0h38l1 1v140h-40v-140z" fill="#063FA1"/>
<path transform="translate(881,870)" d="m0 0h13l8 4 6 7 3 9-1 9-5 8-7 6-7 2h-7l-10-4-6-7-3-8v-7l3-9 5-6z" fill="#0840A1"/>
<path transform="translate(177,870)" d="m0 0h12l8 4 6 7 2 4 1 8-2 8-4 6-7 6-7 2h-7l-10-4-6-7-3-8v-8l4-9 8-7z" fill="#0840A1"/>
</svg>
