<svg xmlns="http://www.w3.org/2000/svg" height="216" width="625.56" xmlns:v="https://vecta.io/nano"><path d="M532.81 98.16c-10.97 0-17.71 10.93-17.71 21.89a22.75 22.75 0 0 0 .42 4.25c16.66-3.2 24.79-12.08 24.79-19.13 0-4.44-2.8-7.01-7.5-7.01zm-148.16 21.41a186.679 186.679 0 0 1 4.5-28.16c5.66-24.56 15.24-43.27 28.76-43.27 9.41 0 12.9 6.53 12.98 14.26.21 20.36-16.34 45.25-36.02 60.9-.26 9.78 2.88 14.3 8.62 14.3 10.31 0 20.6-10.51 29.45-31.67 1.21-2.89 2.36-6.21 3.63-9.4 1.77-4.46 11.03-1.88 9.71 2.56-2.84 9.47-7.39 22.01-7.39 30.29 0 5.54 2.79 7.85 6.9 7.79 5.71-.08 10.39-4.18 13.74-8.17l3.04-15.03c9.66-45.87 20.81-65.82 35.44-65.82 8.74 0 13.17 5.37 13.17 14.04 0 15.91-10.96 34.19-32.04 59.44a67.136 67.136 0 0 0 23.04 4.02l2.34-.01a40.696 40.696 0 0 1-.39-5.48c0-17.84 12.77-30.56 28.52-30.56 10.3 0 18.31 4.82 18.31 15.41 0 13.26-14.06 23.77-31.78 27.43 2.76 3.28 8.18 5.63 15.76 5.63 17.01 0 30.12-8.35 38.81-16.48V0H357.74v133.93a114.331 114.331 0 0 0 26.91-14.36zm63.53-49.33a6.962 6.962 0 0 1 7.01 7.34 7.757 7.757 0 0 1-7.67 7.34 6.962 6.962 0 0 1-7.01-7.34 7.778 7.778 0 0 1 7.67-7.34zm49.69-13.52c-5.19 0-15.69 15.04-24.81 58.24 15.44-19.52 27.96-41.61 27.96-53.09 0-3.02-.88-5.15-3.15-5.15zm37.07 90.47c-14.82 0-23.17-5.75-27.64-13.04a102.85 102.85 0 0 1-4.73.11 66.278 66.278 0 0 1-19.92-2.74 73.749 73.749 0 0 1 6.6 29.99c-.05 19.42-7.04 32.18-20.37 32.18-9.5 0-14.91-6.93-15.1-21.24-.14-10.43 1.25-19.08 3.31-30.79a20.573 20.573 0 0 1-13.18 4.66c-9.8.04-15.26-6.2-15.65-14.79-7.63 10.28-16.8 15.23-26.37 15.23-10.43 0-16-6.7-17.1-16.71a135.986 135.986 0 0 1-27.04 13.43V216h216v-82.7a61.754 61.754 0 0 1-38.81 13.89zM417.93 56.74c-5.62 0-15.54 16.8-21.71 53.71 17.59-17.17 24.76-39.38 24.76-48.21.01-4.09-1.08-5.5-3.05-5.5zm51.78 74.49c-2.29 10.63-5.43 29.35-5.43 41.24 0 6.91 1.5 11.29 5.51 11.29 6.96 0 9.03-12.25 9.03-21.31 0-11.75-3.04-24.12-7.72-32.67z" fill="#ba0c2f"/><path d="M11.41 121.61a31.85 31.85 0 0 0 .87 7.59 17.573 17.573 0 0 0 2.76 6.17 13.371 13.371 0 0 0 4.92 4.15 15.93 15.93 0 0 0 7.25 1.53 15.42 15.42 0 0 0 5.47-.91 18.622 18.622 0 0 0 4.12-2.09 18.115 18.115 0 0 0 3.61-3 31.22 31.22 0 0 1 2.33 3.12 7.034 7.034 0 0 1 1.42 3.88 3.093 3.093 0 0 1-.31 1.17 7.613 7.613 0 0 1-2.04 2.39 18.253 18.253 0 0 1-6.22 3.22 31.482 31.482 0 0 1-9.86 1.35 36.157 36.157 0 0 1-8.22-1.05 20.949 20.949 0 0 1-8.35-4.15 23.945 23.945 0 0 1-6.52-8.63Q0 130.815 0 121.72q0-8.43 2.77-13.89a24.727 24.727 0 0 1 6.8-8.59 24.456 24.456 0 0 1 8.58-4.38 30.845 30.845 0 0 1 8.01-1.25 30.548 30.548 0 0 1 7.65.89 23.462 23.462 0 0 1 5.82 2.3 12.526 12.526 0 0 1 3.44 2.74 4.53 4.53 0 0 1 1.15 2.87c0 1.85-1.39 4.55-3.13 6.86a22.286 22.286 0 0 0-5.48-4.27 15.56 15.56 0 0 0-8.05-2.14 17.223 17.223 0 0 0-7.34 1.42 13.312 13.312 0 0 0-5.02 3.98 16.563 16.563 0 0 0-2.88 6 28.299 28.299 0 0 0-.91 7.35zm88.04 25.58a10.952 10.952 0 0 1-1.74-4.94 70.07 70.07 0 0 1-.52-9.76v-18.84a35.001 35.001 0 0 0-.99-8.77 14.019 14.019 0 0 0-3.45-6.35 15.25 15.25 0 0 0-6.43-3.81 33.006 33.006 0 0 0-9.94-1.27 44.968 44.968 0 0 0-7.15.59 38.37 38.37 0 0 0-6.62 1.64 19.634 19.634 0 0 0-4.86 2.4 3.687 3.687 0 0 0-1.87 2.87 10.345 10.345 0 0 0 .73 3.08 15.684 15.684 0 0 0 1.94 3.78 32.825 32.825 0 0 1 7.29-3.86 26.12 26.12 0 0 1 9.23-1.49q6.585 0 8.91 2.51 2.325 2.52 2.32 7.32v1.8a23.385 23.385 0 0 0-2.38-.11h-2.38a73.059 73.059 0 0 0-9.23.91 33.054 33.054 0 0 0-9.45 2.95 21.311 21.311 0 0 0-7.41 5.9 14.946 14.946 0 0 0-3 9.64h0a17.26 17.26 0 0 0 1.64 8.01 14.277 14.277 0 0 0 4.16 4.99 14.732 14.732 0 0 0 5.62 2.55 28.303 28.303 0 0 0 6.15.7 22.556 22.556 0 0 0 10.18-1.96 25.254 25.254 0 0 0 6.64-4.76 5.679 5.679 0 0 0 2.85 4.65 11.874 11.874 0 0 0 5.7 1.31 17.909 17.909 0 0 0 1.97-.1 12.629 12.629 0 0 0 1.61-.26.846.846 0 0 0 .67-.83 1.224 1.224 0 0 0-.19-.49zm-13.02-14.31a4.534 4.534 0 0 1-1.13 2.76 11.748 11.748 0 0 1-3.06 2.65 20.074 20.074 0 0 1-4.45 2.04 16.961 16.961 0 0 1-5.31.83c-3.51 0-5.9-.85-7.19-2.54a9.401 9.401 0 0 1-1.93-5.86 8.522 8.522 0 0 1 1.82-5.69 12.282 12.282 0 0 1 4.72-3.37 24.611 24.611 0 0 1 6.44-1.66 57.09 57.09 0 0 1 6.97-.44h3.11v11.28zm71.28 15.62h-11.15v-30.66q0-3.165-.22-5.9a12.957 12.957 0 0 0-1.19-4.68 6.704 6.704 0 0 0-3.13-3.02 13.722 13.722 0 0 0-6.03-1.08 16.795 16.795 0 0 0-9.36 2.42c-2.6 1.69-3.9 3.89-3.9 6.39v36.54h-11.19V94.59l.58-.06.68-.04.93-.01a10.571 10.571 0 0 1 5.35 1.37 6.112 6.112 0 0 1 2.9 4.7 23.966 23.966 0 0 1 7.1-4.91 24.249 24.249 0 0 1 10.62-2.16q7.74 0 11.84 3.46a15.917 15.917 0 0 1 5.35 8.64 25.38 25.38 0 0 1 .68 5.13l.11 5.47v32.32zm58-1.31a10.952 10.952 0 0 1-1.74-4.94 70.071 70.071 0 0 1-.52-9.76v-18.84a35.001 35.001 0 0 0-.99-8.77 14.019 14.019 0 0 0-3.45-6.35 15.25 15.25 0 0 0-6.43-3.81 33.006 33.006 0 0 0-9.94-1.27 44.968 44.968 0 0 0-7.15.59 38.37 38.37 0 0 0-6.62 1.64 19.634 19.634 0 0 0-4.86 2.4 3.687 3.687 0 0 0-1.87 2.87 10.344 10.344 0 0 0 .73 3.08 15.684 15.684 0 0 0 1.94 3.78 32.825 32.825 0 0 1 7.29-3.86 26.12 26.12 0 0 1 9.23-1.49q6.585 0 8.91 2.51 2.325 2.52 2.32 7.32v1.8a23.385 23.385 0 0 0-2.38-.11h-2.38a73.059 73.059 0 0 0-9.23.91 33.054 33.054 0 0 0-9.45 2.95 21.439 21.439 0 0 0-7.42 5.9 14.946 14.946 0 0 0-3 9.64h0a17.26 17.26 0 0 0 1.64 8.01 14.278 14.278 0 0 0 4.16 4.99 14.731 14.731 0 0 0 5.62 2.55 28.303 28.303 0 0 0 6.15.7 22.556 22.556 0 0 0 10.18-1.96 25.255 25.255 0 0 0 6.64-4.76 5.679 5.679 0 0 0 2.85 4.65 11.874 11.874 0 0 0 5.7 1.31 17.909 17.909 0 0 0 1.97-.1 12.627 12.627 0 0 0 1.61-.26.846.846 0 0 0 .67-.83.892.892 0 0 0-.18-.49zm-13.02-14.31a4.534 4.534 0 0 1-1.13 2.76 11.748 11.748 0 0 1-3.06 2.65 20.074 20.074 0 0 1-4.45 2.04 16.961 16.961 0 0 1-5.31.83c-3.51 0-5.9-.85-7.19-2.54a9.401 9.401 0 0 1-1.93-5.86 8.522 8.522 0 0 1 1.82-5.69 12.282 12.282 0 0 1 4.72-3.37 24.611 24.611 0 0 1 6.44-1.66 57.089 57.089 0 0 1 6.97-.44h3.11v11.28zm72.75 14.31a10.952 10.952 0 0 1-1.74-4.94 70.071 70.071 0 0 1-.52-9.76V76.97a13.777 13.777 0 0 0-.67-4.72 7.063 7.063 0 0 0-1.83-2.85 5.956 5.956 0 0 0-2.63-1.4 12.676 12.676 0 0 0-2.89-.35l-1.67.04a11.835 11.835 0 0 0-1.41.11v31.15a21.284 21.284 0 0 0-5.45-3.43 21.941 21.941 0 0 0-9.38-1.74 21.243 21.243 0 0 0-8.33 1.69 19.302 19.302 0 0 0-7.06 5.13 25.735 25.735 0 0 0-4.86 8.86 40.613 40.613 0 0 0-1.82 12.86 40.033 40.033 0 0 0 1.86 13.14 22.577 22.577 0 0 0 5 8.48 18.181 18.181 0 0 0 7.16 4.55 25.691 25.691 0 0 0 8.32 1.37 18.582 18.582 0 0 0 9.83-2.36 18.783 18.783 0 0 0 5.46-4.58 5.679 5.679 0 0 0 2.85 4.65 11.874 11.874 0 0 0 5.7 1.31 17.909 17.909 0 0 0 1.97-.1 12.629 12.629 0 0 0 1.61-.26.846.846 0 0 0 .67-.83.816.816 0 0 0-.17-.5zm-13.36-13.35a4.786 4.786 0 0 1-.85 2.63 7.63 7.63 0 0 1-2.44 2.3 15.408 15.408 0 0 1-3.77 1.64 16.17 16.17 0 0 1-4.72.66 12.757 12.757 0 0 1-6.42-1.48 11.369 11.369 0 0 1-4.19-4.16 18.71 18.71 0 0 1-2.23-6.3 46.004 46.004 0 0 1-.64-7.89q0-9.21 3.5-13.92a11.261 11.261 0 0 1 9.55-4.71 15.942 15.942 0 0 1 4.56.6 17.394 17.394 0 0 1 3.56 1.48 13.349 13.349 0 0 1 2.55 1.86l1.54 1.54v25.75zm69.51 13.35a10.952 10.952 0 0 1-1.74-4.94 70.069 70.069 0 0 1-.52-9.76v-18.84a35.002 35.002 0 0 0-.99-8.77 14.019 14.019 0 0 0-3.45-6.35 15.25 15.25 0 0 0-6.43-3.81 33.006 33.006 0 0 0-9.94-1.27 44.968 44.968 0 0 0-7.15.59 38.37 38.37 0 0 0-6.62 1.64 19.634 19.634 0 0 0-4.86 2.4 3.687 3.687 0 0 0-1.87 2.87 10.344 10.344 0 0 0 .73 3.08 15.684 15.684 0 0 0 1.94 3.78 32.825 32.825 0 0 1 7.29-3.86 26.12 26.12 0 0 1 9.23-1.49q6.585 0 8.91 2.51 2.325 2.52 2.32 7.32v1.8a23.385 23.385 0 0 0-2.38-.11h-2.38a73.059 73.059 0 0 0-9.23.91 33.055 33.055 0 0 0-9.45 2.95 21.311 21.311 0 0 0-7.41 5.9 14.946 14.946 0 0 0-3 9.64h0a17.26 17.26 0 0 0 1.64 8.01 14.278 14.278 0 0 0 4.16 4.99 14.731 14.731 0 0 0 5.62 2.55 28.303 28.303 0 0 0 6.15.7 22.556 22.556 0 0 0 10.18-1.96 25.255 25.255 0 0 0 6.64-4.76 5.679 5.679 0 0 0 2.85 4.65 11.874 11.874 0 0 0 5.7 1.31 17.908 17.908 0 0 0 1.97-.1 12.627 12.627 0 0 0 1.61-.26.846.846 0 0 0 .67-.83.991.991 0 0 0-.19-.49zm-13.01-14.31a4.534 4.534 0 0 1-1.13 2.76 11.748 11.748 0 0 1-3.06 2.65 20.073 20.073 0 0 1-4.45 2.04 16.961 16.961 0 0 1-5.31.83c-3.51 0-5.9-.85-7.19-2.54a9.401 9.401 0 0 1-1.93-5.86 8.522 8.522 0 0 1 1.82-5.69 12.282 12.282 0 0 1 4.72-3.37 24.611 24.611 0 0 1 6.44-1.66 57.09 57.09 0 0 1 6.97-.44h3.11v11.28z" fill="#838271"/><path d="M447.53 84.92a7.757 7.757 0 0 0 7.67-7.34 6.968 6.968 0 0 0-7.01-7.34 7.757 7.757 0 0 0-7.67 7.34 6.962 6.962 0 0 0 7.01 7.34zm87.4 53.11c-7.58 0-13-2.35-15.76-5.63 17.73-3.66 31.78-14.17 31.78-27.43 0-10.59-8.01-15.41-18.31-15.41-15.75 0-28.52 12.72-28.52 30.56a40.569 40.569 0 0 0 .39 5.48l-2.34.01a67.137 67.137 0 0 1-23.04-4.02c21.08-25.25 32.04-43.52 32.04-59.44 0-8.68-4.44-14.04-13.17-14.04-14.62 0-25.78 19.94-35.44 65.82l-3.04 15.03c-3.34 3.99-8.02 8.09-13.74 8.17-4.11.06-6.9-2.24-6.9-7.79 0-8.28 4.55-20.82 7.39-30.29 1.33-4.43-7.94-7.01-9.71-2.56l-3.63 9.4c-8.86 21.16-19.14 31.67-29.45 31.67-5.74 0-8.88-4.51-8.62-14.3 19.69-15.65 36.23-40.54 36.02-60.9-.08-7.73-3.57-14.26-12.98-14.26-13.52 0-23.1 18.71-28.76 43.27a186.679 186.679 0 0 0-4.5 28.16 114.523 114.523 0 0 1-26.91 14.37v9.54a136.529 136.529 0 0 0 27.04-13.43c1.1 10.01 6.67 16.71 17.1 16.71 9.57 0 18.75-4.95 26.37-15.23.39 8.6 5.85 14.83 15.65 14.79a20.518 20.518 0 0 0 13.18-4.66c-2.06 11.72-3.45 20.36-3.31 30.79.19 14.3 5.6 21.24 15.1 21.24 13.34 0 20.33-12.76 20.37-32.18a73.713 73.713 0 0 0-6.6-29.99 66.325 66.325 0 0 0 19.92 2.74c1.56 0 3.27-.04 4.73-.11 4.46 7.29 12.82 13.04 27.64 13.04a61.707 61.707 0 0 0 38.8-13.89V121.5c-8.68 8.17-21.78 16.53-38.79 16.53zm-117-81.29c1.97 0 3.05 1.41 3.05 5.51 0 8.83-7.17 31.04-24.76 48.21 6.18-36.93 16.09-53.72 21.71-53.72zm79.94-.02c2.27 0 3.15 2.12 3.15 5.16 0 11.48-12.52 33.56-27.96 53.09 9.12-43.2 19.62-58.25 24.81-58.25zM469.8 183.76c-4.01 0-5.51-4.39-5.51-11.29 0-11.88 3.14-30.6 5.43-41.24l1.4-1.45c4.68 8.55 7.72 20.92 7.72 32.67-.01 9.06-2.09 21.31-9.04 21.31zm45.3-63.71c0-10.96 6.74-21.89 17.71-21.89 4.7 0 7.51 2.57 7.51 7.01 0 7.04-8.13 15.92-24.79 19.13a21.102 21.102 0 0 1-.43-4.25z" fill="#fff"/><path d="M621.51.74l-6.75 18.15L608.01.74h-4.05v21.6h2.7v-18h.15l6.6 18h2.7l6.6-18h.15v18h2.7V.74h-4.05zm-37.35 2.4h7.35v19.2h2.7V3.14h7.35V.74h-17.4v2.4z" fill="#838271"/></svg>